
<svg width="60px" height="60px" viewBox="0 0 60 60" version="1.1" xmlns="http://www.w3.org/2000/svg" xmlns:xlink="http://www.w3.org/1999/xlink">
    <!-- Generator: Sketch 47.1 (45422) - http://www.bohemiancoding.com/sketch -->
    <desc>Created with Sketch.</desc>
    <defs></defs>
    <g id="icons" stroke="none" stroke-width="1" fill="none" fill-rule="evenodd">
        <g id="noun_44349_cc" transform="translate(-94.000000, 0.000000)" fill-rule="nonzero" fill="blue">
            <g id="noun_1521167_cc" transform="translate(74.000000, 0.000000)">
                <path d="M25,35 L42,35 C43.7,35 45,36.3 45,38 L45,55 C45,57.8 47.2,60 50,60 C52.8,60 55,57.8 55,55 L55,38 C55,36.3 56.3,35 58,35 L75,35 C77.8,35 80,32.8 80,30 C80,27.2 77.8,25 75,25 L58,25 C56.3,25 55,23.7 55,22 L55,5 C55,2.2 52.8,0 50,0 C47.2,0 45,2.2 45,5 L45,22 C45,23.7 43.7,25 42,25 L25,25 C22.2,25 20,27.2 20,30 C20,32.8 22.2,35 25,35 Z M25,27 L42,27 C44.8,27 47,24.8 47,22 L47,5 C47,3.3 48.3,2 50,2 C51.7,2 53,3.3 53,5 L53,22 C53,24.8 55.2,27 58,27 L75,27 C76.7,27 78,28.3 78,30 C78,31.7 76.7,33 75,33 L58,33 C55.2,33 53,35.2 53,38 L53,55 C53,56.7 51.7,58 50,58 C48.3,58 47,56.7 47,55 L47,38 C47,35.2 44.8,33 42,33 L25,33 C23.3,33 22,31.7 22,30 C22,28.3 23.3,27 25,27 Z" id="Shape"></path>
            </g>
        </g>
    </g>
</svg>
