
<svg width="16px" height="16px" viewBox="0 0 16 16" version="1.1" xmlns="http://www.w3.org/2000/svg" xmlns:xlink="http://www.w3.org/1999/xlink">
    <!-- Generator: Sketch 47.1 (45422) - http://www.bohemiancoding.com/sketch -->
    <desc>Created with Sketch.</desc>
    <defs></defs>
    <g id="icons" stroke="none" stroke-width="1" fill="none" fill-rule="evenodd">
        <path d="M2.5001,5 L0.5001,5 C0.2241,5 0.0001,5.224 0.0001,5.5 L0.0001,8.5 C0.0001,8.777 0.2241,9.001 0.5001,9.001 L2.5001,9.001 C2.7761,9.001 3.0001,8.777 3.0001,8.5 L3.0001,5.5 C3.0001,5.224 2.7761,5 2.5001,5" id="Fill-26" fill="#607D8B"></path>
        <path d="M15.669,0.0293 C15.469,-0.0407 15.248,0.0193 15.114,0.1823 C13.228,2.4733 10.443,3.8653 7.477,4.0003 C7.211,4.0123 7,4.2333 7,4.5003 L7,9.5003 C7,9.7673 7.211,9.9873 7.477,9.9993 C10.443,10.1343 13.228,11.5263 15.114,13.8173 C15.211,13.9353 15.354,14.0003 15.5,14.0003 C15.557,14.0003 15.613,13.9903 15.669,13.9703 C15.867,13.8993 16,13.7113 16,13.5003 L16,0.5003 C16,0.2893 15.867,0.1003 15.669,0.0293" id="Fill-27" fill="#ECEFF1"></path>
        <path d="M15.5001,14 C15.2241,14 15.0001,13.776 15.0001,13.5 L15.0001,0.5 C15.0001,0.224 15.2241,0 15.5001,0 C15.7761,0 16.0001,0.224 16.0001,0.5 L16.0001,13.5 C16.0001,13.776 15.7761,14 15.5001,14" id="Fill-28" fill="#607D8B"></path>
        <path d="M7.8375,13.3564 L5.7975,9.2764 C5.7125,9.1074 5.5395,9.0004 5.3505,9.0004 L3.1505,9.0004 C2.9855,9.0004 2.8325,9.0804 2.7385,9.2144 C2.6455,9.3494 2.6245,9.5224 2.6815,9.6754 L4.8135,15.3584 C4.9365,15.6794 5.2115,15.9124 5.5485,15.9804 C5.6155,15.9944 5.6825,16.0014 5.7495,16.0014 C6.0155,16.0014 6.2705,15.8944 6.4525,15.7054 L7.6535,14.5134 C7.9605,14.2074 8.0335,13.7274 7.8375,13.3564" id="Fill-29" fill="#607D8B"></path>
        <path d="M7.5001,4 L2.5001,4 C2.2241,4 2.0001,4.224 2.0001,4.5 L2.0001,9.5 C2.0001,9.776 2.2241,10 2.5001,10 L7.5001,10 C7.7761,10 8.0001,9.776 8.0001,9.5 L8.0001,4.5 C8.0001,4.224 7.7761,4 7.5001,4" id="Fill-30" fill="#2196F3"></path>
    </g>
</svg>
