
<svg width="686px" height="715px" viewBox="0 0 686 715" version="1.1" xmlns="http://www.w3.org/2000/svg" xmlns:xlink="http://www.w3.org/1999/xlink">
    <!-- Generator: Sketch 47.1 (45422) - http://www.bohemiancoding.com/sketch -->
    <desc>Created with Sketch.</desc>
    <defs></defs>
    <g id="Page-1" stroke="none" stroke-width="1" fill="none" fill-rule="evenodd">
        <g id="logo-down" transform="translate(-559.000000, -596.000000)" fill-rule="nonzero" fill="#000000">
            <g id="noun_737770_cc" transform="translate(521.000000, 596.000000)">
                <path d="M700.371111,0 L435.88,181.224707 L98.9777778,181.224707 C75.3488889,204.829606 61.6288889,218.535676 38,242.140575 L38,409.659212 C61.6288889,433.264111 75.3488889,446.970181 98.9777778,470.57508 L144.711111,470.57508 L282.673333,708.908413 C290.295556,711.192758 294.868889,712.715655 303.253333,715 L384.048889,671.597444 C386.335556,663.221512 387.86,658.652822 390.146667,650.27689 L285.722222,470.57508 L436.642222,470.57508 L700.371111,651.799787 C711.042222,646.469649 713.328889,644.946752 724,639.616613 L724,12.1831736 C713.328889,6.85303514 711.042222,5.33013845 700.371111,0 Z" id="Shape"></path>
            </g>
        </g>
    </g>
</svg>
