
<svg width="60px" height="60px" viewBox="0 0 60 60" version="1.1" xmlns="http://www.w3.org/2000/svg" xmlns:xlink="http://www.w3.org/1999/xlink">
    <!-- Generator: Sketch 47.1 (45422) - http://www.bohemiancoding.com/sketch -->
    <desc>Created with Sketch.</desc>
    <defs></defs>
    <g id="icons" stroke="none" stroke-width="1" fill="none" fill-rule="evenodd">
        <g id="noun_44349_cc" fill-rule="nonzero" fill="#000000">
            <path d="M30,0 C13.432,0 0,13.432 0,30 C0,46.568 13.432,60 30,60 C46.568,60 60,46.568 60,30 C60,13.432 46.568,0 30,0 Z M30,12.181 C31.759,12.181 33.183,13.606 33.183,15.364 C33.183,17.122 31.759,18.545 30,18.545 C28.243,18.545 26.819,17.121 26.819,15.364 C26.819,13.607 28.243,12.181 30,12.181 Z M37,47.817 L23,47.817 L23,45.272 L26.819,44 L26.819,26.181 L23,24.909 L23,22.364 L26.819,22.364 L33.183,22.364 L33.183,44 L37,45.272 L37,47.817 Z" id="Shape"></path>
        </g>
    </g>
</svg>
