
<svg width="832px" height="832px" viewBox="0 0 832 832" version="1.1" xmlns="http://www.w3.org/2000/svg" xmlns:xlink="http://www.w3.org/1999/xlink">
    <!-- Generator: Sketch 47.1 (45422) - http://www.bohemiancoding.com/sketch -->
    <desc>Created with Sketch.</desc>
    <defs></defs>
    <g id="Page-1" stroke="none" stroke-width="1" fill="none" fill-rule="evenodd">
        <g id="logo-down" transform="translate(-528.000000, -599.000000)" fill-rule="nonzero" fill="#000000">
            <g id="noun_1228105_cc" transform="translate(528.000000, 599.000000)">
                <path d="M416,832 C645.761422,832 832,645.752178 832,416 C832,186.247822 645.761422,0 416,0 C186.238578,0 0,186.247822 0,416 C0,645.752178 186.238578,832 416,832 Z M439.111111,145.6 C477.410844,145.6 508.444444,176.642844 508.444444,214.933333 C508.444444,253.223822 477.410844,284.266667 439.111111,284.266667 C400.811378,284.266667 369.777778,253.223822 369.777778,214.933333 C369.777778,176.642844 400.811378,145.6 439.111111,145.6 Z M416,316.622222 C485.333333,316.622222 502.148978,357.528889 494.383644,407.994311 L462.222222,617.066667 C462.222222,617.066667 485.333333,617.066667 531.555556,593.955556 C531.555556,593.955556 508.444444,686.4 416,686.4 C346.666667,686.4 329.851022,645.493333 337.616356,595.027911 L369.777778,385.955556 C369.777778,385.955556 346.666667,385.955556 300.444444,409.066667 C300.444444,409.066667 323.555556,316.622222 416,316.622222 Z" id="Shape"></path>
            </g>
        </g>
    </g>
</svg>
