
<svg width="12px" height="16px" viewBox="0 0 12 16" version="1.1" xmlns="http://www.w3.org/2000/svg" xmlns:xlink="http://www.w3.org/1999/xlink">
    <!-- Generator: Sketch 47.1 (45422) - http://www.bohemiancoding.com/sketch -->
    <desc>Created with Sketch.</desc>
    <defs></defs>
    <g id="icons" stroke="none" stroke-width="1" fill="none" fill-rule="evenodd">
        <path d="M8.0001,0 L1.0001,0 C0.4491,0 0.0001,0.448 0.0001,1 L0.0001,15 C0.0001,15.552 0.4491,16 1.0001,16 L11.0001,16 C11.5521,16 12.0001,15.552 12.0001,15 L12.0001,4 L8.0001,0 Z" id="Fill-388" fill="#E6E6E6"></path>
        <path d="M8.0001,0 L8.0001,3 C8.0001,3.552 8.4481,4 9.0001,4 L12.0001,4 L8.0001,0 Z" id="Fill-389" fill="#CFD8DC"></path>
        <path d="M9.5001,10 L2.5001,10 C2.2241,10 2.0001,9.776 2.0001,9.5 C2.0001,9.224 2.2241,9 2.5001,9 L9.5001,9 C9.7761,9 10.0001,9.224 10.0001,9.5 C10.0001,9.776 9.7761,10 9.5001,10" id="Fill-390" fill="#90A4AE"></path>
        <path d="M6.5001,12 L2.5001,12 C2.2241,12 2.0001,11.776 2.0001,11.5 C2.0001,11.224 2.2241,11 2.5001,11 L6.5001,11 C6.7761,11 7.0001,11.224 7.0001,11.5 C7.0001,11.776 6.7761,12 6.5001,12" id="Fill-391" fill="#90A4AE"></path>
        <path d="M5.5001,7 C5.3701,7 5.2421,6.949 5.1461,6.854 L4.0001,5.707 L2.8541,6.854 C2.7111,6.997 2.4951,7.038 2.3091,6.962 C2.1221,6.885 2.0001,6.702 2.0001,6.5 L2.0001,1.5 C2.0001,0.672 2.6711,0 3.5001,0 L7.0001,0 C6.4481,0 6.0001,0.447 6.0001,1 L6.0001,6.5 C6.0001,6.702 5.8781,6.885 5.6911,6.962 C5.6301,6.987 5.5641,7 5.5001,7" id="Fill-392" fill="#0637D8"></path>
    </g>
</svg>
