
<svg width="16px" height="13px" viewBox="0 0 16 13" version="1.1" xmlns="http://www.w3.org/2000/svg" xmlns:xlink="http://www.w3.org/1999/xlink">
    <!-- Generator: Sketch 47.1 (45422) - http://www.bohemiancoding.com/sketch -->
    <desc>Created with Sketch.</desc>
    <defs></defs>
    <g id="icons" stroke="none" stroke-width="1" fill="white" fill-rule="evenodd">
        <path d="M16.0001,1.5391 C15.4041,1.8001 14.7711,1.9731 14.1101,2.0571 C14.7901,1.6501 15.3091,1.0131 15.5541,0.2431 C14.9201,0.6211 14.2201,0.8891 13.4751,1.0381 C12.8711,0.3971 12.0141,0.0001 11.0771,0.0001 C9.2611,0.0001 7.7991,1.4741 7.7991,3.2801 C7.7991,3.5411 7.8201,3.7911 7.8741,4.0291 C5.1471,3.8961 2.7341,2.5891 1.1131,0.5981 C0.8311,1.0891 0.6651,1.6501 0.6651,2.2561 C0.6651,3.3921 1.2501,4.3981 2.1221,4.9811 C1.5961,4.9721 1.0781,4.8181 0.6411,4.5771 L0.6411,4.6131 C0.6411,6.2071 1.7771,7.5311 3.2691,7.8361 C3.0011,7.9101 2.7101,7.9451 2.4081,7.9451 C2.1971,7.9451 1.9861,7.9331 1.7871,7.8891 C2.2131,9.1871 3.4181,10.1431 4.8521,10.1741 C3.7351,11.0471 2.3191,11.5731 0.7841,11.5731 C0.5161,11.5731 0.2581,11.5601 0.0001,11.5281 C1.4531,12.4651 3.1751,13.0001 5.0321,13.0001 C11.0681,13.0001 14.3681,8.0001 14.3681,3.6661 C14.3681,3.5211 14.3631,3.3811 14.3561,3.2421 C15.0071,2.7801 15.5541,2.2021 16.0001,1.5391" id="Fill-420" fill="white"></path>
    </g>
</svg>
