
<svg width="360px" height="40px" viewBox="0 0 360 40" version="1.1" xmlns="http://www.w3.org/2000/svg" xmlns:xlink="http://www.w3.org/1999/xlink">
    <!-- Generator: Sketch 47.1 (45422) - http://www.bohemiancoding.com/sketch -->
    <desc>Created with Sketch.</desc>
    <defs></defs>
    <g id="icons" stroke="none" stroke-width="1" fill="none" fill-rule="evenodd">
        <path d="" id="Path-3" stroke="#979797"></path>
        <path d="M52.089876,19.1362446 C52.089876,19.1362446 53.2843418,27.1556422 54.9648672,27.1772258 C56.6453926,27.1988095 56.3901408,12.9358074 58.0274191,12.8688981 C59.6646975,12.8019889 59.2430384,32.8890636 61.1454401,32.8442776 C63.0478419,32.7994916 61.4646224,6.84301855 63.0478419,6.97845582 C64.6310614,7.1138931 65.2228884,36.6322046 66.5560269,36.6322046 C67.8891653,36.6322046 67.1074272,2.68115516 68.4264634,2.77639292 C69.7454996,2.87163069 70.6442869,39.8319777 72.3370343,39.8319777 C74.0297817,39.8319777 72.6710168,0.831977688 74.0297817,0.831977688 C75.3885466,0.831977688 76.4155508,39.8319777 77.7664241,39.8319777 C79.1172973,39.8319777 77.6968527,0.831977688 79.4389582,0.831977688 C81.1810637,0.831977688 81.7644293,38.8394005 83.5403804,38.8218638 C85.3163314,38.8043271 84.0490037,3.61033041 85.3163314,3.64783197 C86.5836591,3.68533353 86.9883954,36.6322046 88.8766949,36.6322046 C90.7649944,36.6322046 89.1187846,8.28966132 90.7649944,8.33633592 C92.4112042,8.38301052 92.7684627,31.9844397 94.1100626,32.0313841 C95.4516624,32.0783285 95.5240543,14.3487258 96.7387334,14.3913534 C97.9534125,14.4339811 98.24345,25.6639436 99.5009061,25.7130464 C100.33921,25.7457815 101.689115,23.5535143 103.55062,19.1362446" id="Path-4" stroke="#979797"></path>
        <path d="M1,21.5277108 C1,21.5277108 2.19446576,13.5083132 3.87499117,13.4867295 C5.55551659,13.4651459 5.30026475,27.728148 6.93754308,27.7950572 C8.57482141,27.8619665 8.1531623,7.77489176 10.0555641,7.81967779 C11.9579659,7.86446382 10.3747464,33.8209368 11.9579659,33.6854996 C13.5411853,33.5500623 14.1330123,4.03175078 15.4661508,4.03175078 C16.7992893,4.03175078 16.0175512,37.9828002 17.3365873,37.8875625 C18.6556235,37.7923247 19.5544108,0.831977688 21.2471582,0.831977688 C22.9399056,0.831977688 21.5811407,39.8319777 22.9399056,39.8319777 C24.2986706,39.8319777 25.3256748,0.831977688 26.676548,0.831977688 C28.0274213,0.831977688 26.6069766,39.8319777 28.3490821,39.8319777 C30.0911876,39.8319777 30.6745533,1.82455486 32.4505043,1.84209156 C34.2264554,1.85962825 32.9591277,37.053625 34.2264554,37.0161234 C35.4937831,36.9786218 35.8985194,4.03175078 37.7868189,4.03175078 C39.6751183,4.03175078 38.0289085,32.3742941 39.6751183,32.3276195 C41.3213281,32.2809449 41.6785867,8.67951563 43.0201865,8.63257124 C44.3617864,8.58562684 44.4341783,26.3152296 45.6488573,26.272602 C46.8635364,26.2299743 47.1535739,15.0000118 48.41103,14.950909 C49.2493341,14.9181739 50.5992386,17.1104411 52.4607437,21.5277108 L1,21.5277108 Z" id="Path-4" stroke="#979797"></path>
        <path d="" id="Path-3" stroke="#979797"></path>
        <path d="M154.269628,19.1362446 C154.269628,19.1362446 155.464094,27.1556422 157.144619,27.1772258 C158.825145,27.1988095 158.569893,12.9358074 160.207171,12.8688981 C161.84445,12.8019889 161.42279,32.8890636 163.325192,32.8442776 C165.227594,32.7994916 163.644375,6.84301855 165.227594,6.97845582 C166.810813,7.1138931 167.40264,36.6322046 168.735779,36.6322046 C170.068917,36.6322046 169.287179,2.68115516 170.606215,2.77639292 C171.925252,2.87163069 172.824039,39.8319777 174.516786,39.8319777 C176.209534,39.8319777 174.850769,0.831977688 176.209534,0.831977688 C177.568299,0.831977688 178.595303,39.8319777 179.946176,39.8319777 C181.297049,39.8319777 179.876605,0.831977688 181.61871,0.831977688 C183.360816,0.831977688 183.944181,38.8394005 185.720132,38.8218638 C187.496084,38.8043271 186.228756,3.61033041 187.496084,3.64783197 C188.763411,3.68533353 189.168148,36.6322046 191.056447,36.6322046 C192.944746,36.6322046 191.298537,8.28966132 192.944746,8.33633592 C194.590956,8.38301052 194.948215,31.9844397 196.289815,32.0313841 C197.631415,32.0783285 197.703806,14.3487258 198.918485,14.3913534 C200.133165,14.4339811 200.423202,25.6639436 201.680658,25.7130464 C202.518962,25.7457815 203.868867,23.5535143 205.730372,19.1362446" id="Path-4" stroke="#979797"></path>
        <path d="M103.179752,21.5277108 C103.179752,21.5277108 104.374218,13.5083132 106.054743,13.4867295 C107.735269,13.4651459 107.480017,27.728148 109.117295,27.7950572 C110.754574,27.8619665 110.332914,7.77489176 112.235316,7.81967779 C114.137718,7.86446382 112.554498,33.8209368 114.137718,33.6854996 C115.720937,33.5500623 116.312764,4.03175078 117.645903,4.03175078 C118.979041,4.03175078 118.197303,37.9828002 119.516339,37.8875625 C120.835376,37.7923247 121.734163,0.831977688 123.42691,0.831977688 C125.119658,0.831977688 123.760893,39.8319777 125.119658,39.8319777 C126.478423,39.8319777 127.505427,0.831977688 128.8563,0.831977688 C130.207173,0.831977688 128.786729,39.8319777 130.528834,39.8319777 C132.27094,39.8319777 132.854305,1.82455486 134.630256,1.84209156 C136.406207,1.85962825 135.13888,37.053625 136.406207,37.0161234 C137.673535,36.9786218 138.078271,4.03175078 139.966571,4.03175078 C141.85487,4.03175078 140.208661,32.3742941 141.85487,32.3276195 C143.50108,32.2809449 143.858339,8.67951563 145.199939,8.63257124 C146.541538,8.58562684 146.61393,26.3152296 147.828609,26.272602 C149.043288,26.2299743 149.333326,15.0000118 150.590782,14.950909 C151.429086,14.9181739 152.778991,17.1104411 154.640496,21.5277108 L103.179752,21.5277108 Z" id="Path-4" stroke="#979797"></path>
        <path d="" id="Path-3" stroke="#979797"></path>
        <path d="M256.44938,19.1362446 C256.44938,19.1362446 257.643846,27.1556422 259.324371,27.1772258 C261.004897,27.1988095 260.749645,12.9358074 262.386923,12.8688981 C264.024202,12.8019889 263.602543,32.8890636 265.504944,32.8442776 C267.407346,32.7994916 265.824127,6.84301855 267.407346,6.97845582 C268.990566,7.1138931 269.582393,36.6322046 270.915531,36.6322046 C272.24867,36.6322046 271.466931,2.68115516 272.785968,2.77639292 C274.105004,2.87163069 275.003791,39.8319777 276.696538,39.8319777 C278.389286,39.8319777 277.030521,0.831977688 278.389286,0.831977688 C279.748051,0.831977688 280.775055,39.8319777 282.125928,39.8319777 C283.476802,39.8319777 282.056357,0.831977688 283.798462,0.831977688 C285.540568,0.831977688 286.123933,38.8394005 287.899885,38.8218638 C289.675836,38.8043271 288.408508,3.61033041 289.675836,3.64783197 C290.943163,3.68533353 291.3479,36.6322046 293.236199,36.6322046 C295.124499,36.6322046 293.478289,8.28966132 295.124499,8.33633592 C296.770708,8.38301052 297.127967,31.9844397 298.469567,32.0313841 C299.811167,32.0783285 299.883559,14.3487258 301.098238,14.3913534 C302.312917,14.4339811 302.602954,25.6639436 303.86041,25.7130464 C304.698714,25.7457815 306.048619,23.5535143 307.910124,19.1362446" id="Path-4" stroke="#979797"></path>
        <path d="M205.359504,21.5277108 C205.359504,21.5277108 206.55397,13.5083132 208.234495,13.4867295 C209.915021,13.4651459 209.659769,27.728148 211.297047,27.7950572 C212.934326,27.8619665 212.512666,7.77489176 214.415068,7.81967779 C216.31747,7.86446382 214.734251,33.8209368 216.31747,33.6854996 C217.90069,33.5500623 218.492517,4.03175078 219.825655,4.03175078 C221.158793,4.03175078 220.377055,37.9828002 221.696092,37.8875625 C223.015128,37.7923247 223.913915,0.831977688 225.606662,0.831977688 C227.29941,0.831977688 225.940645,39.8319777 227.29941,39.8319777 C228.658175,39.8319777 229.685179,0.831977688 231.036052,0.831977688 C232.386925,0.831977688 230.966481,39.8319777 232.708586,39.8319777 C234.450692,39.8319777 235.034057,1.82455486 236.810008,1.84209156 C238.58596,1.85962825 237.318632,37.053625 238.58596,37.0161234 C239.853287,36.9786218 240.258024,4.03175078 242.146323,4.03175078 C244.034623,4.03175078 242.388413,32.3742941 244.034623,32.3276195 C245.680832,32.2809449 246.038091,8.67951563 247.379691,8.63257124 C248.721291,8.58562684 248.793682,26.3152296 250.008362,26.272602 C251.223041,26.2299743 251.513078,15.0000118 252.770534,14.950909 C253.608838,14.9181739 254.958743,17.1104411 256.820248,21.5277108 L205.359504,21.5277108 Z" id="Path-4" stroke="#979797"></path>
        <path d="M307.539256,21.5277108 C307.539256,21.5277108 308.733722,13.5083132 310.414247,13.4867295 C312.094773,13.4651459 311.839521,27.728148 313.476799,27.7950572 C315.114078,27.8619665 314.692419,7.77489176 316.59482,7.81967779 C318.497222,7.86446382 316.914003,33.8209368 318.497222,33.6854996 C320.080442,33.5500623 320.672269,4.03175078 322.005407,4.03175078 C323.338546,4.03175078 322.556807,37.9828002 323.875844,37.8875625 C325.19488,37.7923247 326.093667,0.831977688 327.786415,0.831977688 C329.479162,0.831977688 328.120397,39.8319777 329.479162,39.8319777 C330.837927,39.8319777 331.864931,0.831977688 333.215804,0.831977688 C334.566678,0.831977688 333.146233,39.8319777 334.888338,39.8319777 C336.630444,39.8319777 337.21381,1.82455486 338.989761,1.84209156 C340.765712,1.85962825 339.498384,37.053625 340.765712,37.0161234 C342.033039,36.9786218 342.437776,4.03175078 344.326075,4.03175078 C346.214375,4.03175078 344.568165,32.3742941 346.214375,32.3276195 C347.860584,32.2809449 348.217843,8.67951563 349.559443,8.63257124 C350.901043,8.58562684 350.973435,26.3152296 352.188114,26.272602 C353.402793,26.2299743 353.69283,15.0000118 354.950286,14.950909 C355.78859,14.9181739 357.138495,17.1104411 359,21.5277108 L307.539256,21.5277108 Z" id="Path-4" stroke="#979797"></path>
    </g>
</svg>
