
<svg width="360px" height="40px" viewBox="0 0 360 40" version="1.1" xmlns="http://www.w3.org/2000/svg" xmlns:xlink="http://www.w3.org/1999/xlink">
    <!-- Generator: Sketch 47.1 (45422) - http://www.bohemiancoding.com/sketch -->
    <desc>Created with Sketch.</desc>
    <defs></defs>
    <g id="icons" stroke="none" stroke-width="1" fill="none" fill-rule="evenodd">
        <path d="M1,20.7315517 C2.50635954,18.4846407 2.21339552,13.3654635 3.94637935,14.0284477 C5.67936317,14.6914318 4.82472922,23.1051485 7.05905127,23.0495508 C9.29337331,22.9939532 7.59813876,11.3653925 9.29337331,11.3503548 C10.9886078,11.335317 10.9969345,27.0135059 13.2100011,26.9784253 C15.4230677,26.9433447 13.1837814,8.09209213 15.4230677,8.09209213 C17.662354,8.09209213 16.9777941,30.6768272 18.8251887,30.6617661 C20.6725833,30.646705 19.1286291,4.93599566 21.2645632,5.29005998 C23.4004974,5.64412429 22.9499947,33.8579493 24.9698869,33.8456652 C26.989779,33.833381 25.0971552,3.30502201 26.989779,3.30502201 C28.8824028,3.30502201 28.3338731,36.683257 30.6619692,36.9816634 C32.9900652,37.2800697 30.9525513,1.55433908 32.9900652,1.52264149 C35.0275791,1.49094389 34.6201235,38.7954044 36.4103159,38.7148032 C38.2005083,38.634202 37.1044722,0.456763863 39.0878764,0.456763863 C41.0712807,0.456763863 41.5999135,39.4567639 42.9532411,39.4567639 C44.3065686,39.4567639 43.9370598,0.456763863 45.3644006,0.456763863 C46.7917415,0.456763863 46.4947728,39.4567639 48.6615775,39.4567639 C50.8283823,39.4567639 49.1159998,1.15818394 50.8283823,1.13608499 C52.5407648,1.11398604 53.1114668,38.3231256 55.0332088,38.2913999 C56.9549508,38.2596742 55.3543472,1.97728991 56.9549508,1.95843872 C58.5555545,1.93958752 58.8587877,36.4217068 60.4245891,36.3981439 C61.9903906,36.3745811 60.9812279,3.30502201 62.8089496,3.30502201 C64.6366713,3.30502201 64.3793136,34.2962246 66.0972915,34.2724182 C67.8152694,34.2486117 67.436712,5.64013694 69.0511728,5.64412429 C70.6656335,5.64811164 70.5944735,31.0655688 72.3701475,31.0721055 C74.1458215,31.0786422 73.4676296,8.92771145 74.7326274,8.09209213 C75.9976252,7.25647282 76.6089276,26.677073 77.9040643,27.4165673 C79.1992011,28.1560617 79.1221201,12.1247766 80.4390883,11.3503548 C81.7560566,10.5759329 82.6485566,23.0421733 83.8955983,23.8933427 C85.14264,24.7445121 85.3234053,16.120101 86.7031921,15.6259242 C88.082979,15.1317474 88.2819491,18.6742856 90.4041396,21.5622797" id="Path-5" stroke="#979797"></path>
        <path d="M89.8432461,20.7315517 C91.3496057,18.4846407 91.0566416,13.3654635 92.7896255,14.0284477 C94.5226093,14.6914318 93.6679753,23.1051485 95.9022974,23.0495508 C98.1366194,22.9939532 96.4413849,11.3653925 98.1366194,11.3503548 C99.831854,11.335317 99.8401806,27.0135059 102.053247,26.9784253 C104.266314,26.9433447 102.027027,8.09209213 104.266314,8.09209213 C106.5056,8.09209213 105.82104,30.6768272 107.668435,30.6617661 C109.515829,30.646705 107.971875,4.93599566 110.107809,5.29005998 C112.243743,5.64412429 111.793241,33.8579493 113.813133,33.8456652 C115.833025,33.833381 113.940401,3.30502201 115.833025,3.30502201 C117.725649,3.30502201 117.177119,36.683257 119.505215,36.9816634 C121.833311,37.2800697 119.795797,1.55433908 121.833311,1.52264149 C123.870825,1.49094389 123.46337,38.7954044 125.253562,38.7148032 C127.043754,38.634202 125.947718,0.456763863 127.931123,0.456763863 C129.914527,0.456763863 130.44316,39.4567639 131.796487,39.4567639 C133.149815,39.4567639 132.780306,0.456763863 134.207647,0.456763863 C135.634988,0.456763863 135.338019,39.4567639 137.504824,39.4567639 C139.671628,39.4567639 137.959246,1.15818394 139.671628,1.13608499 C141.384011,1.11398604 141.954713,38.3231256 143.876455,38.2913999 C145.798197,38.2596742 144.197593,1.97728991 145.798197,1.95843872 C147.398801,1.93958752 147.702034,36.4217068 149.267835,36.3981439 C150.833637,36.3745811 149.824474,3.30502201 151.652196,3.30502201 C153.479917,3.30502201 153.22256,34.2962246 154.940538,34.2724182 C156.658516,34.2486117 156.279958,5.64013694 157.894419,5.64412429 C159.50888,5.64811164 159.43772,31.0655688 161.213394,31.0721055 C162.989068,31.0786422 162.310876,8.92771145 163.575873,8.09209213 C164.840871,7.25647282 165.452174,26.677073 166.74731,27.4165673 C168.042447,28.1560617 167.965366,12.1247766 169.282334,11.3503548 C170.599303,10.5759329 171.491803,23.0421733 172.738844,23.8933427 C173.985886,24.7445121 174.166651,16.120101 175.546438,15.6259242 C176.926225,15.1317474 177.125195,18.6742856 179.247386,21.5622797" id="Path-5" stroke="#979797"></path>
        <path d="M179.719553,20.7315517 C181.225913,18.4846407 180.932949,13.3654635 182.665933,14.0284477 C184.398916,14.6914318 183.544282,23.1051485 185.778605,23.0495508 C188.012927,22.9939532 186.317692,11.3653925 188.012927,11.3503548 C189.708161,11.335317 189.716488,27.0135059 191.929554,26.9784253 C194.142621,26.9433447 191.903335,8.09209213 194.142621,8.09209213 C196.381907,8.09209213 195.697347,30.6768272 197.544742,30.6617661 C199.392137,30.646705 197.848182,4.93599566 199.984116,5.29005998 C202.120051,5.64412429 201.669548,33.8579493 203.68944,33.8456652 C205.709332,33.833381 203.816708,3.30502201 205.709332,3.30502201 C207.601956,3.30502201 207.053426,36.683257 209.381522,36.9816634 C211.709618,37.2800697 209.672105,1.55433908 211.709618,1.52264149 C213.747132,1.49094389 213.339677,38.7954044 215.129869,38.7148032 C216.920062,38.634202 215.824025,0.456763863 217.80743,0.456763863 C219.790834,0.456763863 220.319467,39.4567639 221.672794,39.4567639 C223.026122,39.4567639 222.656613,0.456763863 224.083954,0.456763863 C225.511295,0.456763863 225.214326,39.4567639 227.381131,39.4567639 C229.547936,39.4567639 227.835553,1.15818394 229.547936,1.13608499 C231.260318,1.11398604 231.83102,38.3231256 233.752762,38.2913999 C235.674504,38.2596742 234.0739,1.97728991 235.674504,1.95843872 C237.275108,1.93958752 237.578341,36.4217068 239.144142,36.3981439 C240.709944,36.3745811 239.700781,3.30502201 241.528503,3.30502201 C243.356225,3.30502201 243.098867,34.2962246 244.816845,34.2724182 C246.534823,34.2486117 246.156265,5.64013694 247.770726,5.64412429 C249.385187,5.64811164 249.314027,31.0655688 251.089701,31.0721055 C252.865375,31.0786422 252.187183,8.92771145 253.452181,8.09209213 C254.717178,7.25647282 255.328481,26.677073 256.623618,27.4165673 C257.918754,28.1560617 257.841673,12.1247766 259.158642,11.3503548 C260.47561,10.5759329 261.36811,23.0421733 262.615152,23.8933427 C263.862193,24.7445121 264.042959,16.120101 265.422745,15.6259242 C266.802532,15.1317474 267.001502,18.6742856 269.123693,21.5622797" id="Path-5" stroke="#979797"></path>
        <path d="M269.59586,20.7315517 C271.10222,18.4846407 270.809256,13.3654635 272.54224,14.0284477 C274.275224,14.6914318 273.42059,23.1051485 275.654912,23.0495508 C277.889234,22.9939532 276.193999,11.3653925 277.889234,11.3503548 C279.584468,11.335317 279.592795,27.0135059 281.805861,26.9784253 C284.018928,26.9433447 281.779642,8.09209213 284.018928,8.09209213 C286.258214,8.09209213 285.573654,30.6768272 287.421049,30.6617661 C289.268444,30.646705 287.724489,4.93599566 289.860424,5.29005998 C291.996358,5.64412429 291.545855,33.8579493 293.565747,33.8456652 C295.585639,33.833381 293.693016,3.30502201 295.585639,3.30502201 C297.478263,3.30502201 296.929733,36.683257 299.25783,36.9816634 C301.585926,37.2800697 299.548412,1.55433908 301.585926,1.52264149 C303.623439,1.49094389 303.215984,38.7954044 305.006176,38.7148032 C306.796369,38.634202 305.700333,0.456763863 307.683737,0.456763863 C309.667141,0.456763863 310.195774,39.4567639 311.549101,39.4567639 C312.902429,39.4567639 312.53292,0.456763863 313.960261,0.456763863 C315.387602,0.456763863 315.090633,39.4567639 317.257438,39.4567639 C319.424243,39.4567639 317.71186,1.15818394 319.424243,1.13608499 C321.136625,1.11398604 321.707327,38.3231256 323.629069,38.2913999 C325.550811,38.2596742 323.950208,1.97728991 325.550811,1.95843872 C327.151415,1.93958752 327.454648,36.4217068 329.02045,36.3981439 C330.586251,36.3745811 329.577088,3.30502201 331.40481,3.30502201 C333.232532,3.30502201 332.975174,34.2962246 334.693152,34.2724182 C336.41113,34.2486117 336.032572,5.64013694 337.647033,5.64412429 C339.261494,5.64811164 339.190334,31.0655688 340.966008,31.0721055 C342.741682,31.0786422 342.06349,8.92771145 343.328488,8.09209213 C344.593486,7.25647282 345.204788,26.677073 346.499925,27.4165673 C347.795061,28.1560617 347.71798,12.1247766 349.034949,11.3503548 C350.351917,10.5759329 351.244417,23.0421733 352.491459,23.8933427 C353.7385,24.7445121 353.919266,16.120101 355.299052,15.6259242 C356.678839,15.1317474 356.877809,18.6742856 359,21.5622797" id="Path-5" stroke="#979797"></path>
    </g>
</svg>
