
<svg width="373px" height="40px" viewBox="0 0 373 40" version="1.1" xmlns="http://www.w3.org/2000/svg" xmlns:xlink="http://www.w3.org/1999/xlink">
    <!-- Generator: Sketch 47.1 (45422) - http://www.bohemiancoding.com/sketch -->
    <desc>Created with Sketch.</desc>
    <defs></defs>
    <g id="icons" stroke="none" stroke-width="1" fill="none" fill-rule="evenodd">
        <path d="M65,16.2604771 C65.3510396,18.1255129 66.7067523,20.6109467 67.2806819,20.3615294 C68.5843598,19.7949795 68.7803268,13.7041682 70.2131138,13.8746849 C71.6459009,14.0452017 71.5273038,21.196677 72.7529837,21.0127909 C73.9786636,20.8289049 73.8564898,13.7186308 74.8975981,13.7186308 C75.9387064,13.7186308 75.7633774,21.2134576 76.9176431,21.0127909 C78.0719087,20.8121243 78.1266462,12.46421 79.308703,12.9517695 C80.4907597,13.4393289 80.082933,23.0055299 81.2412126,22.7961209 C82.3994923,22.5867119 82.5176439,12.3970735 83.774349,12.6911601 C85.0310542,12.9852467 84.8581035,24.1243901 86.0394928,23.9189856 C87.220882,23.7135811 87.1754126,11.8944784 88.3564844,11.8944784 C89.5375562,11.8944784 89.6138687,24.1547017 90.7637046,23.9189856 C91.9135405,23.6832695 91.4902013,10.384173 92.8066434,10.9821969 C94.1230855,11.5802208 94.3619614,26.4164523 95.6683738,26.1470437 C96.9747861,25.877635 96.6792274,9.58377214 97.8749362,9.93701234 C99.070645,10.2902525 99.0131754,27.6889463 100.27677,27.5084711 C101.540364,27.3279958 101.489213,8.98874399 102.83684,9.22831905 C104.184467,9.46789412 104.315583,28.7004576 105.543027,28.4446825 C106.770471,28.1889074 106.447916,8.02183856 107.631753,8.22915356 C108.815591,8.43646857 108.981734,29.4816788 110.19115,29.2586674 C111.400567,29.035656 111.204997,7.05304617 112.377512,7.35405542 C113.550028,7.65506466 113.718143,30.7004502 114.767226,30.4334415 C115.816308,30.1664328 115.320407,6.02781788 116.486957,6.30813458 C117.653507,6.58845127 118.086339,31.6536818 119.335894,31.5312719 C120.585449,31.4088619 120.279939,5.58578835 121.440107,5.82290977 C122.600276,6.06003119 122.758183,32.7601322 123.898502,32.4638018 C125.038821,32.1674714 124.841492,4.95628829 125.909794,5.20813784 C126.621995,5.37603755 127.352353,14.7914915 128.100869,33.4544998 C129.013747,14.0689118 129.84233,4.43391066 130.586619,4.54949645 C131.703052,4.72287514 131.408033,34.1403676 132.517361,34.1403676 C133.626689,34.1403676 133.391067,3.89654121 134.532019,4.10106121 C135.672971,4.30558121 135.78856,35.1040123 137.023408,34.9480939 C138.258255,34.7921754 138.160184,3.26936771 139.424568,3.48330156 C140.688951,3.69723541 140.893497,35.7930035 142.016959,35.7930035 C143.14042,35.7930035 142.714725,2.78846928 143.918494,2.9365528 C145.122264,3.08463632 145.54299,36.5403443 146.790325,36.3802065 C148.03766,36.2200688 147.682965,2.1569089 148.862218,2.30185814 C150.041471,2.44680738 150.315489,37.0919602 151.468749,36.9552605 C152.62201,36.8185608 152.286942,1.55566983 153.440313,1.75920157 C154.593684,1.96273331 154.830523,37.8635112 156.031357,37.7604097 C157.232192,37.6573082 157.012159,1.19148729 158.217046,1.34907985 C159.421933,1.50667241 159.654571,38.5040736 160.810784,38.3855324 C161.966997,38.2669912 161.63754,0.753997578 162.813322,0.877844834 C163.989103,1.00169209 164.313221,38.8777521 165.483821,38.8777521 C166.654422,38.8777521 166.302257,0.877844834 167.495786,0.877844834 C168.689314,0.877844834 169.063864,38.8777521 170.257861,38.8777521 C171.451857,38.8777521 171.151954,0.217227302 172.271846,0.331096082 C173.391737,0.444964861 173.659124,39.3305795 174.711387,39.3305795 C175.763649,39.3305795 175.261815,0.331096082 176.480946,0.331096082 C177.700077,0.331096082 178.441773,39.3305795 179.587775,39.3305795 C180.733778,39.3305795 179.938051,0.331096082 181.065101,0.331096082 C182.192152,0.331096082 182.958253,39.3305795 184.095842,39.3305795 C185.233431,39.3305795 184.51531,0.331096082 185.615589,0.331096082 C186.715868,0.331096082 187.349992,39.3305795 188.496847,39.3305795 C189.643701,39.3305795 189.023711,0.331096082 190.203111,0.331096082 C191.382512,0.331096082 192.051821,39.3305795 193.214325,39.3305795 C194.37683,39.3305795 193.710554,0.331096082 194.853255,0.331096082 C195.995956,0.331096082 196.573183,39.2134892 197.785013,39.3305795 C198.996844,39.4476698 198.536785,0.802331096 199.730317,0.802331096 C200.923849,0.802331096 201.31887,39.2285991 202.559053,39.3305795 C203.799236,39.4325599 203.552336,1.32498418 204.717808,1.21245282 C205.88328,1.09992146 206.03825,38.8777521 207.248924,38.8777521 C208.459599,38.8777521 208.351282,1.33469917 209.560529,1.21245282 C210.769776,1.09020647 210.971616,38.2508671 212.117906,38.3855324 C213.264196,38.5201977 212.913101,1.75510939 214.179698,1.75510939 C215.446296,1.75510939 216.016985,38.22825 217.184179,38.3855324 C218.351372,38.5428148 217.722028,2.54472082 218.88977,2.38980405 C220.057512,2.23488728 220.723093,37.6073351 221.89627,37.7604097 C223.069448,37.9134843 222.520897,3.20649721 223.624334,3.0075637 C224.727772,2.8086302 225.185954,36.8163468 226.362245,36.9552605 C227.538537,37.0941742 227.227931,3.71040872 228.369072,3.56789159 C229.510213,3.42537446 229.800516,36.2722191 230.966727,36.3802065 C232.132938,36.4881939 231.911528,4.14820722 233.065305,4.0027477 C234.219082,3.85728817 234.542486,35.6134412 235.624389,35.7930035 C236.706293,35.9725658 236.391058,4.93773173 237.443624,4.72941227 C238.49619,4.5210928 238.728587,34.8277701 239.893426,34.9480939 C241.058265,35.0684176 240.963811,5.41379057 242.141026,5.21463707 C243.31824,5.01548357 243.529824,34.019654 244.667968,34.1403676 C245.806112,34.2610812 245.572462,5.87101145 246.732651,5.70163327 C247.89284,5.5322551 248.136895,33.3161914 249.365954,33.4544998 C250.595012,33.5928081 250.4911,6.50364106 251.69946,6.26055791 C252.90782,6.01747476 253.038762,32.2487425 254.290686,32.4638018 C255.542611,32.6788611 255.531656,7.36441926 256.793669,7.13565606 C258.055681,6.90689285 258.272222,31.2867085 259.435153,31.5312719 C260.598085,31.7758352 260.399239,8.32226286 261.544835,8.13482155 C262.69043,7.94738023 262.906992,30.5945491 264.094569,30.7689024 C265.282145,30.9432557 265.229755,9.12530415 266.371973,8.84351483 C267.51419,8.56172551 267.646768,29.3557739 268.790801,29.6103245 C269.934835,29.864875 269.944221,10.1712411 271.069374,9.88869937 C272.194527,9.60615762 272.246028,28.222354 273.432685,28.4446825 C274.619342,28.667011 274.880434,11.0286428 275.938589,10.8009809 C276.996744,10.573319 276.731017,27.31415 277.784122,27.5084711 C278.837227,27.7027922 279.13151,11.8216739 280.256131,11.5976626 C281.380752,11.3736513 281.298881,26.3885294 282.42133,26.5847936 C283.543779,26.7810578 283.682255,12.7057238 284.873469,12.4050207 C286.064683,12.1043177 286.190555,25.1374741 287.418528,25.3233303 C288.646501,25.5091865 288.831385,13.3667148 289.940211,13.1718821 C291.049037,12.9770493 291.03165,24.3461383 292.011906,24.5162239 C292.992163,24.6863095 292.872182,14.1321072 293.990682,13.8746849 C295.109182,13.6172626 295.666673,23.1156938 296.739112,23.4282597 C297.811551,23.7408257 297.593703,15.464615 298.635488,15.2284289 C299.677272,14.9922428 299.986397,22.179455 301.19691,22.4176193 C302.407422,22.6557837 302.59855,16.3743669 303.881056,16.2604771 C305.163561,16.1465874 305.445388,21.7513983 306.540072,21.9431328 C307.634757,22.1348672 308.505414,22.0088271 308.636897,17.0934647" id="Path-6" stroke="#979797"></path>
        <path d="M1,1.97142461 L64.968929,19.0183275 C64.8374455,14.1029651 63.9667889,13.976925 62.8721044,14.1686594 C61.7774199,14.3603939 61.495593,19.9652048 60.2130877,19.8513151 C58.9305824,19.7374253 58.7394543,13.4560085 57.5289418,13.6941729 C56.3184293,13.9323372 56.0093044,21.1195494 54.9675198,20.8833633 C53.9257351,20.6471772 54.1435833,12.3709665 53.0711441,12.6835325 C51.998705,12.9960984 51.4412145,22.4945296 50.3227144,22.2371073 C49.2042142,21.979685 49.3241948,11.4254827 48.3439384,11.5955683 C47.363682,11.7656539 47.3810689,23.1347429 46.272243,22.9399101 C45.1634171,22.7450774 44.9785334,10.6026057 43.7505601,10.7884619 C42.5225868,10.9743181 42.3967153,24.0074745 41.2055013,23.7067715 C40.0142873,23.4060684 39.875811,9.33073437 38.7533619,9.52699859 C37.6309128,9.72326281 37.7127836,24.7381409 36.5881626,24.5141296 C35.4635416,24.2901183 35.1692588,8.40900001 34.1161537,8.60332113 C33.0630486,8.79764225 33.3287755,25.5384732 32.2706208,25.3108113 C31.212466,25.0831494 30.9513736,7.44478119 29.7647167,7.66710969 C28.5780597,7.88943819 28.5265593,26.5056346 27.401406,26.2230928 C26.2762527,25.9405511 26.2668668,6.24691718 25.1228332,6.50146774 C23.9787997,6.75601831 23.8462223,27.5500667 22.7040046,27.2682774 C21.561787,26.986488 21.6141772,5.16853646 20.4266007,5.34288977 C19.2390242,5.51724307 19.0224621,28.164412 17.8768666,27.9769707 C16.7312712,27.7895293 16.9301167,4.33595702 15.7671853,4.58052035 C14.6042538,4.82508367 14.3877134,29.2048993 13.1257005,28.9761361 C11.8636877,28.7473729 11.8746432,3.43293111 10.6227185,3.64799043 C9.37079371,3.86304975 9.2398518,30.0943174 8.03149207,29.8512343 C6.82313234,29.6081511 6.92704428,2.51898412 5.69798577,2.65729244 C4.46892725,2.79560077 4.22487157,30.5795371 3.06468264,30.4101589 C1.90449371,30.2407808 2.13814365,1.850711 1,1.97142461 Z" id="Path-6" stroke="#979797"></path>
        <path d="M371.968929,4.70516837 C370.830785,4.58445476 371.064435,32.9745245 369.904246,33.1439027 C368.744057,33.3132809 368.500002,5.52934453 367.270943,5.39103621 C366.041885,5.25272788 366.145797,32.3418949 364.937437,32.5849781 C363.729077,32.8280612 363.598135,6.59679352 362.346211,6.38173419 C361.094286,6.16667487 361.105241,31.4811167 359.843228,31.7098799 C358.581216,31.9386431 358.364675,7.55882743 357.201744,7.31426411 C356.038812,7.06970078 356.237658,30.5232731 355.092062,30.7107144 C353.946467,30.8981557 353.729905,8.25098684 352.542328,8.07663353 C351.354752,7.90228022 351.407142,29.7202318 350.264924,30.0020211 C349.122707,30.2838105 348.990129,9.48976207 347.846096,9.23521151 C346.702062,8.98066094 346.692676,28.6742948 345.567523,28.9568366 C344.44237,29.2393783 344.390869,10.623182 343.204212,10.4008535 C342.017555,10.178525 341.756463,27.8168931 340.698308,28.0445551 C339.640153,28.272217 339.90588,11.531386 338.852775,11.3370649 C337.79967,11.1427438 337.505387,27.0238621 336.380766,27.2478734 C335.256145,27.4718847 335.338016,12.4570066 334.215567,12.2607424 C333.093118,12.0644781 332.954642,26.1398122 331.763428,26.4405153 C330.572214,26.7412183 330.446342,13.7080618 329.218369,13.5222056 C327.990396,13.3363495 327.805512,25.4788211 326.696686,25.6736539 C325.58786,25.8684866 325.605247,14.4993977 324.624991,14.3293121 C323.644734,14.1592264 323.764715,24.7134288 322.646215,24.9708511 C321.527714,25.2282733 320.970224,15.7298422 319.897785,15.4172762 C318.825346,15.1047103 319.043194,23.380921 318.001409,23.6171071 C316.959625,23.8532931 316.6505,16.666081 315.439987,16.4279166 C314.229475,16.1897523 314.038347,22.4711691 312.755841,22.5850588 C311.473336,22.6989486 311.191509,17.0941376 310.096825,16.9024032 C309.00214,16.7106688 308.131483,16.8367088 308,21.7520713 L371.968929,4.70516837 Z" id="Path-6" stroke="#979797"></path>
    </g>
</svg>
