
<svg width="553px" height="556px" viewBox="0 0 553 556" version="1.1" xmlns="http://www.w3.org/2000/svg" xmlns:xlink="http://www.w3.org/1999/xlink">
    <!-- Generator: Sketch 47.1 (45422) - http://www.bohemiancoding.com/sketch -->
    <desc>Created with Sketch.</desc>
    <defs></defs>
    <g id="Page-1" stroke="none" stroke-width="1" fill="none" fill-rule="evenodd">
        <g id="logo-down" transform="translate(-179.000000, -168.000000)">
            <g id="Group" transform="translate(179.000000, 168.000000)">
                <circle id="Oval-12" fill="#FDBD6C" cx="276.5" cy="277.5" r="276.5"></circle>
                <rect id="Rectangle" fill="#FFFFFF" transform="translate(466.698273, 126.076547) rotate(-39.000000) translate(-466.698273, -126.076547) " x="433.198273" y="117.076547" width="67" height="18"></rect>
                <rect id="Rectangle" fill="#FFFFFF" transform="translate(466.698273, 429.076547) scale(1, -1) rotate(-39.000000) translate(-466.698273, -429.076547) " x="433.198273" y="420.076547" width="67" height="18"></rect>
                <rect id="Rectangle" fill="#FFFFFF" transform="translate(85.698273, 126.076547) scale(-1, 1) rotate(-39.000000) translate(-85.698273, -126.076547) " x="52.1982732" y="117.076547" width="67" height="18"></rect>
                <rect id="Rectangle" fill="#FFFFFF" transform="translate(84.698273, 427.076547) scale(-1, -1) rotate(-39.000000) translate(-84.698273, -427.076547) " x="51.1982732" y="418.076547" width="67" height="18"></rect>
                <rect id="Rectangle" fill="#FFFFFF" transform="translate(39.698273, 221.076547) scale(-1, 1) rotate(-13.000000) translate(-39.698273, -221.076547) " x="6.19827323" y="212.076547" width="67" height="18"></rect>
                <rect id="Rectangle" fill="#FFFFFF" transform="translate(38.698273, 331.076547) scale(-1, -1) rotate(-13.000000) translate(-38.698273, -331.076547) " x="5.19827323" y="322.076547" width="67" height="18"></rect>
                <rect id="Rectangle" fill="#FFFFFF" transform="translate(513.698273, 221.076547) rotate(-13.000000) translate(-513.698273, -221.076547) " x="480.198273" y="212.076547" width="67" height="18"></rect>
                <rect id="Rectangle" fill="#FFFFFF" transform="translate(513.698273, 332.076547) scale(1, -1) rotate(-13.000000) translate(-513.698273, -332.076547) " x="480.198273" y="323.076547" width="67" height="18"></rect>
                <rect id="Rectangle" fill="#FFFFFF" transform="translate(381.698273, 57.076547) rotate(-65.000000) translate(-381.698273, -57.076547) " x="348.198273" y="48.0765468" width="67" height="18"></rect>
                <rect id="Rectangle" fill="#FFFFFF" transform="translate(381.698273, 498.076547) scale(1, -1) rotate(-65.000000) translate(-381.698273, -498.076547) " x="348.198273" y="489.076547" width="67" height="18"></rect>
                <rect id="Rectangle" fill="#FFFFFF" transform="translate(171.698273, 57.076547) scale(-1, 1) rotate(-65.000000) translate(-171.698273, -57.076547) " x="138.198273" y="48.0765468" width="67" height="18"></rect>
                <rect id="Rectangle" fill="#FFFFFF" transform="translate(171.698273, 497.076547) scale(-1, -1) rotate(-65.000000) translate(-171.698273, -497.076547) " x="138.198273" y="488.076547" width="67" height="18"></rect>
                <rect id="Rectangle" fill="#FFFFFF" transform="translate(277.314482, 34.164875) rotate(-90.000000) translate(-277.314482, -34.164875) " x="243.814482" y="25.1648752" width="67" height="18"></rect>
                <rect id="Rectangle" fill="#FFFFFF" transform="translate(277.314482, 522.164875) rotate(-90.000000) translate(-277.314482, -522.164875) " x="243.814482" y="513.164875" width="67" height="18"></rect>
                <circle id="Oval-13" fill="#FFFFFF" cx="275.5" cy="276.5" r="222.5"></circle>
            </g>
            <g id="Group" transform="translate(455.500000, 445.500000) rotate(-12.000000) translate(-455.500000, -445.500000) translate(247.000000, 236.000000)">
                <circle id="Oval-12" fill-opacity="0.532778533" fill="#FEBF6F" cx="208.5" cy="209.5" r="208.5"></circle>
                <rect id="Rectangle" fill="#FFFFFF" transform="translate(352.500000, 95.000000) rotate(-39.000000) translate(-352.500000, -95.000000) " x="327" y="88" width="51" height="14"></rect>
                <rect id="Rectangle" fill="#FFFFFF" transform="translate(352.500000, 324.000000) scale(1, -1) rotate(-39.000000) translate(-352.500000, -324.000000) " x="327" y="317" width="51" height="14"></rect>
                <rect id="Rectangle" fill="#FFFFFF" transform="translate(64.500000, 95.000000) scale(-1, 1) rotate(-39.000000) translate(-64.500000, -95.000000) " x="39" y="88" width="51" height="14"></rect>
                <rect id="Rectangle" fill="#FFFFFF" transform="translate(63.500000, 322.000000) scale(-1, -1) rotate(-39.000000) translate(-63.500000, -322.000000) " x="38" y="315" width="51" height="14"></rect>
                <rect id="Rectangle" fill="#FFFFFF" transform="translate(29.500000, 167.000000) scale(-1, 1) rotate(-13.000000) translate(-29.500000, -167.000000) " x="4" y="160" width="51" height="14"></rect>
                <rect id="Rectangle" fill="#FFFFFF" transform="translate(28.500000, 249.000000) scale(-1, -1) rotate(-13.000000) translate(-28.500000, -249.000000) " x="3" y="242" width="51" height="14"></rect>
                <rect id="Rectangle" fill="#FFFFFF" transform="translate(388.500000, 167.000000) rotate(-13.000000) translate(-388.500000, -167.000000) " x="363" y="160" width="51" height="14"></rect>
                <rect id="Rectangle" fill="#FFFFFF" transform="translate(388.500000, 251.000000) scale(1, -1) rotate(-13.000000) translate(-388.500000, -251.000000) " x="363" y="244" width="51" height="14"></rect>
                <rect id="Rectangle" fill="#FFFFFF" transform="translate(288.500000, 43.000000) rotate(-65.000000) translate(-288.500000, -43.000000) " x="263" y="36" width="51" height="14"></rect>
                <rect id="Rectangle" fill="#FFFFFF" transform="translate(288.500000, 375.000000) scale(1, -1) rotate(-65.000000) translate(-288.500000, -375.000000) " x="263" y="368" width="51" height="14"></rect>
                <rect id="Rectangle" fill="#FFFFFF" transform="translate(129.500000, 43.000000) scale(-1, 1) rotate(-65.000000) translate(-129.500000, -43.000000) " x="104" y="36" width="51" height="14"></rect>
                <rect id="Rectangle" fill="#FFFFFF" transform="translate(129.500000, 375.000000) scale(-1, -1) rotate(-65.000000) translate(-129.500000, -375.000000) " x="104" y="368" width="51" height="14"></rect>
                <rect id="Rectangle" fill="#FFFFFF" transform="translate(209.500000, 26.000000) rotate(-90.000000) translate(-209.500000, -26.000000) " x="184" y="19" width="51" height="14"></rect>
                <rect id="Rectangle" fill="#FFFFFF" transform="translate(209.500000, 393.000000) rotate(-90.000000) translate(-209.500000, -393.000000) " x="184" y="386" width="51" height="14"></rect>
                <circle id="Oval-13" fill="#FFFFFF" cx="206.5" cy="207.5" r="167.5"></circle>
            </g>
        </g>
    </g>
</svg>
