
<svg width="809px" height="821px" viewBox="0 0 809 821" version="1.1" xmlns="http://www.w3.org/2000/svg" xmlns:xlink="http://www.w3.org/1999/xlink">
    <!-- Generator: Sketch 47.1 (45422) - http://www.bohemiancoding.com/sketch -->
    <desc>Created with Sketch.</desc>
    <defs></defs>
    <g id="Page-1" stroke="none" stroke-width="1" fill="none" fill-rule="evenodd">
        <g id="Artboard-2" transform="translate(-580.000000, -452.000000)" fill="#7C7C7C">
            <g id="Group" transform="translate(566.000000, 438.000000)">
                <rect id="Rectangle" transform="translate(201.500000, 83.500000) rotate(-20.000000) translate(-201.500000, -83.500000) " x="137" y="19" width="129" height="129" rx="48"></rect>
                <rect id="Rectangle" transform="translate(327.500000, 210.500000) rotate(20.000000) translate(-327.500000, -210.500000) " x="263" y="146" width="129" height="129" rx="48"></rect>
                <rect id="Rectangle" transform="translate(83.500000, 205.500000) rotate(20.000000) translate(-83.500000, -205.500000) " x="19" y="141" width="129" height="129" rx="48"></rect>
                <rect id="Rectangle" transform="translate(205.500000, 337.500000) rotate(-20.000000) translate(-205.500000, -337.500000) " x="141" y="273" width="129" height="129" rx="48"></rect>
                <rect id="Rectangle" transform="translate(629.500000, 514.500000) rotate(-20.000000) translate(-629.500000, -514.500000) " x="565" y="450" width="129" height="129" rx="48"></rect>
                <rect id="Rectangle" transform="translate(753.500000, 640.500000) rotate(20.000000) translate(-753.500000, -640.500000) " x="689" y="576" width="129" height="129" rx="48"></rect>
                <rect id="Rectangle" transform="translate(511.500000, 636.500000) rotate(20.000000) translate(-511.500000, -636.500000) " x="447" y="572" width="129" height="129" rx="48"></rect>
                <rect id="Rectangle" transform="translate(633.500000, 765.500000) rotate(-20.000000) translate(-633.500000, -765.500000) " x="569" y="701" width="129" height="129" rx="48"></rect>
                <rect id="Rectangle" transform="translate(201.500000, 83.500000) rotate(-20.000000) translate(-201.500000, -83.500000) " x="137" y="19" width="129" height="129" rx="48"></rect>
                <rect id="Rectangle" transform="translate(327.500000, 210.500000) rotate(20.000000) translate(-327.500000, -210.500000) " x="263" y="146" width="129" height="129" rx="48"></rect>
                <rect id="Rectangle" transform="translate(83.500000, 205.500000) rotate(20.000000) translate(-83.500000, -205.500000) " x="19" y="141" width="129" height="129" rx="48"></rect>
                <rect id="Rectangle" transform="translate(205.500000, 337.500000) rotate(-20.000000) translate(-205.500000, -337.500000) " x="141" y="273" width="129" height="129" rx="48"></rect>
                <rect id="Rectangle" transform="translate(619.500000, 86.500000) scale(-1, 1) rotate(-20.000000) translate(-619.500000, -86.500000) " x="555" y="22" width="129" height="129" rx="48"></rect>
                <rect id="Rectangle" transform="translate(744.500000, 212.500000) scale(-1, 1) rotate(20.000000) translate(-744.500000, -212.500000) " x="680" y="148" width="129" height="129" rx="48"></rect>
                <rect id="Rectangle" transform="translate(500.500000, 208.500000) scale(-1, 1) rotate(20.000000) translate(-500.500000, -208.500000) " x="436" y="144" width="129" height="129" rx="48"></rect>
                <rect id="Rectangle" transform="translate(624.500000, 339.500000) scale(-1, 1) rotate(-20.000000) translate(-624.500000, -339.500000) " x="560" y="275" width="129" height="129" rx="48"></rect>
                <rect id="Rectangle" transform="translate(619.500000, 86.500000) scale(-1, 1) rotate(-20.000000) translate(-619.500000, -86.500000) " x="555" y="22" width="129" height="129" rx="48"></rect>
                <rect id="Rectangle" transform="translate(744.500000, 212.500000) scale(-1, 1) rotate(20.000000) translate(-744.500000, -212.500000) " x="680" y="148" width="129" height="129" rx="48"></rect>
                <rect id="Rectangle" transform="translate(500.500000, 208.500000) scale(-1, 1) rotate(20.000000) translate(-500.500000, -208.500000) " x="436" y="144" width="129" height="129" rx="48"></rect>
                <rect id="Rectangle" transform="translate(215.500000, 502.500000) scale(-1, 1) rotate(-20.000000) translate(-215.500000, -502.500000) " x="151" y="438" width="129" height="129" rx="48"></rect>
                <rect id="Rectangle" transform="translate(339.500000, 629.500000) scale(-1, 1) rotate(20.000000) translate(-339.500000, -629.500000) " x="275" y="565" width="129" height="129" rx="48"></rect>
                <rect id="Rectangle" transform="translate(97.500000, 624.500000) scale(-1, 1) rotate(20.000000) translate(-97.500000, -624.500000) " x="33" y="560" width="129" height="129" rx="48"></rect>
                <rect id="Rectangle" transform="translate(219.500000, 755.500000) scale(-1, 1) rotate(-20.000000) translate(-219.500000, -755.500000) " x="155" y="691" width="129" height="129" rx="48"></rect>
                <rect id="Rectangle" transform="translate(215.500000, 502.500000) scale(-1, 1) rotate(-20.000000) translate(-215.500000, -502.500000) " x="151" y="438" width="129" height="129" rx="48"></rect>
                <rect id="Rectangle" transform="translate(339.500000, 629.500000) scale(-1, 1) rotate(20.000000) translate(-339.500000, -629.500000) " x="275" y="565" width="129" height="129" rx="48"></rect>
                <rect id="Rectangle" transform="translate(97.500000, 624.500000) scale(-1, 1) rotate(20.000000) translate(-97.500000, -624.500000) " x="33" y="560" width="129" height="129" rx="48"></rect>
                <rect id="Rectangle" transform="translate(205.500000, 337.500000) rotate(-20.000000) translate(-205.500000, -337.500000) " x="141" y="273" width="129" height="129" rx="48"></rect>
            </g>
        </g>
    </g>
</svg>
