
<svg width="130px" height="160px" viewBox="0 0 130 160" version="1.1" xmlns="http://www.w3.org/2000/svg" xmlns:xlink="http://www.w3.org/1999/xlink">
    <!-- Generator: Sketch 47.1 (45422) - http://www.bohemiancoding.com/sketch -->
    <desc>Created with Sketch.</desc>
    <defs>
        <path d="M0,18.557679 L64.1201793,1.16753562 L64.1201793,36.311672 C78.2033313,16.2868846 90.7515975,4.57217242 101.764978,1.16753562 C112.778358,-2.23710119 121.553131,1.80442785 128.089295,13.2921227 C132.899722,30.7892441 128.627033,41.8875889 115.271227,46.587157 C101.91542,51.2867251 92.8043285,46.2991871 87.9379511,31.6245432 C85.7671041,27.0319531 82.5872982,27.0319531 78.3985334,31.6245432 C74.2097686,36.2171333 69.4503173,42.3982222 64.1201793,50.1678099 L64.1201793,146.688704 L84.1371039,160 L0,160 L19.3884234,146.688704 L19.3884234,28.1539781 L0,18.557679 Z" id="path-1"></path>
        <linearGradient x1="50%" y1="86.7984694%" x2="50%" y2="2.11218374%" id="linearGradient-3">
            <stop stop-color="#FE0004" offset="0%"></stop>
            <stop stop-color="#FFECEC" offset="100%"></stop>
        </linearGradient>
        <linearGradient x1="50%" y1="0%" x2="50%" y2="97.6702009%" id="linearGradient-4">
            <stop stop-color="#FFF9BF" offset="0%"></stop>
            <stop stop-color="#FDD113" offset="100%"></stop>
        </linearGradient>
    </defs>
    <g id="Page-1" stroke="none" stroke-width="1" fill="none" fill-rule="evenodd">
        <g id="LogoGraphic" transform="translate(-359.000000, -364.000000)">
            <g id="Group" transform="translate(359.000000, 364.000000)">
                <mask id="mask-2" fill="white">
                    <use xlink:href="#path-1"></use>
                </mask>
                <use id="Mask" fill="#D8D8D8" xlink:href="#path-1"></use>
                <g mask="url(#mask-2)">
                    <g transform="translate(-1.000000, -13.000000)">
                        <rect id="Rectangle-6" fill="url(#linearGradient-3)" x="0.546218487" y="0" width="128.907563" height="186.45481"></rect>
                        <polygon id="Path-6" fill="url(#linearGradient-4)" points="0.94484881 53.5335087 6.67213311 47.9456201 17.0178172 45.2507289 24.673285 55.7581417 41.4393063 59.7936586 63.3859786 70.0600966 77.1800071 67.9868035 89.5540908 60.5308728 100.085891 53.5335087 111.323107 53.5335087 115.931746 46.9667816 125.179608 49.1550411 129.280659 45.2507289 129.280659 141.074968 0.546218487 141.074968"></polygon>
                        <polygon id="Path-7" fill="#FFFFFF" points="1.51721418 70.9007437 11.09779 65.557634 21.7952435 65.557634 33.7022754 60.7262054 44.4421701 60.7262054 53.6139688 56.154519 64.860926 60.7262054 73.1459239 66.7961475 80.2738366 70.9007437 88.4225754 70.9007437 91.8793115 72.8036622 97.9819306 72.8036622 99.3690926 70.9007437 108.667098 72.8036622 118.924318 69.1737927 127.275426 67.9758063 129.951472 67.9758063 129.951472 106.840456 1.09243697 106.840456"></polygon>
                        <polygon id="Path-8" fill="#4891D9" points="0.289722364 87.7860701 7.98290431 83.8170215 15.5691325 79.3857356 22.8280823 80.5087693 35.0122515 76.8717201 49.2756012 76.8717201 54.673556 80.5087693 67.454527 80.5087693 77.0525549 85.1033861 87.3115569 83.8170215 103.55569 89.9072373 110.184682 87.7860701 121.568837 92.0091891 130 92.0091891 130 186.573534 0.289722364 186.573534"></polygon>
                    </g>
                </g>
            </g>
        </g>
    </g>
</svg>
