
<svg width="98px" height="120px" viewBox="0 0 98 120" version="1.1" xmlns="http://www.w3.org/2000/svg" xmlns:xlink="http://www.w3.org/1999/xlink">
    <!-- Generator: Sketch 47.1 (45422) - http://www.bohemiancoding.com/sketch -->
    <desc>Created with Sketch.</desc>
    <defs></defs>
    <g id="icons" stroke="none" stroke-width="1" fill="none" fill-rule="evenodd">
        <path d="M-5.68434189e-14,115.424627 L-5.68434189e-14,4 L-5.68434189e-14,4 C-5.71139604e-14,1.790861 1.790861,-3.41948692e-14 4,-3.46389584e-14 C4.74679927,-3.46389584e-14 5.47868534,0.209063595 6.11280675,0.603524232 L95.6740138,56.3158377 L95.6740138,56.3158377 C97.5498356,57.4827086 98.1245538,59.9492984 96.9576828,61.8251202 C96.6338293,62.345736 96.1946296,62.7849357 95.6740138,63.1087892 L6.11280675,118.821103 L6.11280675,118.821103 C4.23698498,119.987974 1.77039518,119.413255 0.603524232,117.537434 C0.209063595,116.903312 -6.73873608e-14,116.171426 -6.21724894e-14,115.424627 Z" id="Path-7" fill="#FFFFFF"></path>
    </g>
</svg>
