
<svg width="82px" height="76px" viewBox="0 0 82 76" version="1.1" xmlns="http://www.w3.org/2000/svg" xmlns:xlink="http://www.w3.org/1999/xlink">
    <!-- Generator: Sketch 47.1 (45422) - http://www.bohemiancoding.com/sketch -->
    <desc>Created with Sketch.</desc>
    <defs></defs>
    <g id="icons" stroke="none" stroke-width="1" fill="none" fill-rule="evenodd">
        <g id="noun_1700752_cc" transform="translate(0.000000, -1.000000)" fill-rule="nonzero" fill="#000000">
            <g id="Group" transform="translate(0.000000, 0.637820)">
                <path d="M20.000069,0.36268 C9.518509,0.36268 1.000069,8.88098 1.000069,19.36258 C1.000069,28.11108 6.940059,35.44578 15.000069,37.6437 L15.000069,50.3624 L11.937569,50.3624 C11.353409,50.3624 10.962809,50.5659 10.531319,50.8312 C9.559679,51.437 8.772779,52.2006 8.000069,52.9249 L8.000069,51.3624 C8.000019,50.8388 7.523649,50.3625 7.000069,50.3624 C4.946589,50.3624 2.850439,50.3624 0.8125691,50.3624 C0.3541691,50.4504 -0.0081509,50.8958 6.91e-05,51.3624 L6.91e-05,75.3622 C0.0001191,75.8858 0.4764891,76.3621 1.000069,76.3622 L7.000069,76.3622 C7.523649,76.3621 8.000019,75.8858 8.000069,75.3622 L8.000069,74.4247 C8.796939,75.026 9.687929,75.497 10.531319,75.9247 C11.024489,76.1535 11.415909,76.3622 12.000069,76.3622 L26.843819,76.3622 C26.950429,76.3622 27.056379,76.3372 27.156319,76.3002 C29.876979,75.4787 30.600649,72.1313 29.093819,69.6439 C30.208179,68.9363 31.029709,67.9819 31.156319,66.8316 C31.275209,65.7512 30.837599,64.7055 30.218819,63.7378 C31.652399,63.074 32.734239,62.133 33.000069,60.9253 C33.258439,59.7515 32.805269,58.6292 32.125069,57.6128 C33.214379,56.8912 34.000069,55.9249 34.000069,54.7378 C34.000069,53.1727 33.021679,51.6486 31.343819,50.5191 C31.177259,50.413 30.978729,50.3579 30.781319,50.3629 L25.000069,50.3629 L25.000069,37.6442 C33.060079,35.44628 39.000069,28.11158 39.000069,19.36308 C39.000069,8.88148 30.481629,0.36318 20.000069,0.36318 L20.000069,0.36268 Z M62.000068,0.36268 C51.518509,0.36268 43.000069,8.88098 43.000069,19.36258 C43.000069,28.11108 48.940059,35.44578 57.000068,37.6437 L57.000068,50.3624 C55.020458,50.3623 52.993759,50.3624 51.031319,50.3624 C50.897419,50.3884 50.768919,50.4414 50.656319,50.5186 C48.978459,51.648 48.000069,53.1722 48.000069,54.7373 C48.000069,55.9244 48.785759,56.8907 49.875069,57.6123 C49.194869,58.6287 48.741699,59.751 49.000069,60.9248 C49.265899,62.1325 50.347739,63.0735 51.781319,63.7373 C51.162539,64.705 50.724929,65.7506 50.843819,66.8311 C50.970429,67.9814 51.791959,68.9358 52.906319,69.6434 C51.399489,72.1307 52.123159,75.4782 54.843818,76.2997 C54.943718,76.3367 55.049708,76.3587 55.156318,76.3617 L70.000068,76.3617 C70.584228,76.3617 70.975648,76.153 71.468818,75.9242 C72.417518,75.4938 73.208738,74.9708 74.000068,74.4242 L74.000068,75.3617 C74.000118,75.8853 74.476488,76.3616 75.000068,76.3617 L81.000068,76.3617 C81.523648,76.3616 82.000018,75.8853 82.000068,75.3617 L82.000068,51.3619 C82.000018,50.8383 81.523648,50.362 81.000068,50.3619 C78.947428,50.3619 76.848078,50.3619 74.812568,50.3619 C74.354168,50.4499 73.991848,50.8953 74.000068,51.3619 L74.000068,52.9244 C73.214968,52.117 72.334878,51.4412 71.468818,50.8307 C71.037328,50.5655 70.646728,50.3619 70.062568,50.3619 L67.000068,50.3619 L67.000068,37.6432 C75.060078,35.44528 81.000068,28.11058 81.000068,19.36208 C81.000068,8.88048 72.481628,0.36218 62.000068,0.36218 L62.000068,0.36268 Z M20.000069,2.33148 C29.400759,2.33148 37.000069,9.96188 37.000069,19.36258 C37.000069,28.76318 29.400759,36.3625 20.000069,36.3625 C10.599379,36.3625 3.000069,28.76318 3.000069,19.36258 C3.000069,9.96188 10.599379,2.33148 20.000069,2.33148 Z M62.000068,2.33148 C71.400758,2.33148 79.000068,9.96188 79.000068,19.36258 C79.000068,28.76318 71.400758,36.3625 62.000068,36.3625 C52.599379,36.3625 45.000069,28.76318 45.000069,19.36258 C45.000069,9.96188 52.599379,2.33148 62.000068,2.33148 Z M70.750068,11.67508 L59.406318,23.95628 L53.156319,18.58138 C52.755439,18.23788 52.078139,18.28998 51.734559,18.69078 C51.390969,19.09168 51.443019,19.76898 51.843819,20.11258 L58.843818,26.11248 C59.237358,26.45438 59.905418,26.40978 60.250068,26.01848 L72.250068,13.01858 C72.608968,12.64338 72.503378,12.02378 72.168668,11.64798 C71.768938,11.24718 71.230988,11.28778 70.750098,11.67498 L70.750068,11.67508 Z M13.694199,12.89868 C13.298249,13.27538 13.207129,14.00778 13.625099,14.39378 L18.562599,19.36258 L13.625099,24.29998 C13.256929,24.67628 13.264359,25.35368 13.640699,25.72188 C14.017039,26.09008 14.694429,26.08258 15.062599,25.70588 L20.000099,20.76838 L24.937599,25.70588 C25.305769,26.08218 25.983159,26.08968 26.359499,25.72188 C26.735839,25.35368 26.743269,24.67628 26.375099,24.29998 L21.437599,19.36258 L26.375099,14.39378 C26.758889,14.02398 26.663409,13.37748 26.322899,12.99118 C25.883029,12.57978 25.388939,12.63678 24.937609,12.99118 L20.000069,17.92508 L15.062569,12.98758 C14.514269,12.48078 14.104259,12.61498 13.694199,12.89858 L13.694199,12.89868 Z M17.000069,38.0813 C17.982659,38.2381 18.973909,38.3313 20.000069,38.3313 C21.026229,38.3313 22.017479,38.2383 23.000069,38.0813 L23.000069,50.3624 L17.000069,50.3624 L17.000069,38.0813 Z M59.000068,38.0813 C59.982658,38.2381 60.973908,38.3313 62.000068,38.3313 C63.026228,38.3313 64.017478,38.2383 65.000068,38.0813 L65.000068,50.3624 L59.000068,50.3624 L59.000068,38.0813 Z M11.937569,52.3624 L30.406319,52.3624 C31.509299,53.1865 32.000069,54.0997 32.000069,54.7373 C32.000069,55.4076 31.639469,55.9605 30.500069,56.3623 C28.948159,56.3622 27.347049,56.3623 25.812569,56.3623 C25.288969,56.4113 24.857229,56.9325 24.906319,57.456 C24.955419,57.9796 25.476469,58.4114 26.000069,58.3623 L30.312569,58.3623 C30.919979,59.1062 31.166559,59.9042 31.031319,60.5185 C30.880359,61.2045 30.296549,61.918 28.625069,62.3623 C27.365129,62.3622 26.054949,62.3623 24.812569,62.3623 C24.288969,62.4113 23.857229,62.9325 23.906319,63.456 C23.955419,63.9796 24.476469,64.4114 25.000069,64.3623 L28.343819,64.3623 C28.961739,65.1161 29.229729,65.9453 29.156319,66.6123 C29.074819,67.353 28.672449,67.9584 27.531319,68.3623 C26.302649,68.3622 25.023679,68.3623 23.812569,68.3623 C23.288969,68.4113 22.857229,68.9324 22.906319,69.4559 C22.955419,69.9795 23.476469,70.4113 24.000069,70.3622 L27.343819,70.3622 C28.499189,71.8669 27.955709,73.9126 26.593819,74.3622 L12.000069,74.3622 C10.493849,73.7748 9.246839,72.871 8.000069,71.8622 L8.000069,55.7685 C9.296439,54.4744 10.381269,53.2949 11.937569,52.3624 L11.937569,52.3624 Z M51.593819,52.3624 L70.062568,52.3624 C71.599788,53.2311 72.915358,54.6757 74.000068,55.7685 L74.000068,71.8622 C72.731618,72.9587 71.554458,73.6695 70.000068,74.3622 L55.406318,74.3622 C54.044429,73.9126 53.500949,71.8669 54.656318,70.3622 L58.000068,70.3622 C58.528378,70.3722 59.014308,69.8906 59.014308,69.3622 C59.014308,68.8338 58.528378,68.3548 58.000068,68.3623 L54.468818,68.3623 C53.327689,67.9584 52.925339,67.353 52.843819,66.6123 C52.771219,65.9525 53.021819,65.1098 53.625069,64.3623 L57.000068,64.3623 C57.528378,64.3723 58.014308,63.8907 58.014308,63.3623 C58.014308,62.8339 57.528378,62.3548 57.000068,62.3623 L53.375069,62.3623 C51.703589,61.918 51.119779,61.2045 50.968819,60.5185 C50.833579,59.9042 51.080159,59.1062 51.687569,58.3623 L56.000068,58.3623 C56.528378,58.3723 57.014308,57.8907 57.014308,57.3623 C57.014308,56.8339 56.528378,56.3548 56.000068,56.3623 L51.500069,56.3623 C50.360669,55.961 50.000069,55.4076 50.000069,54.7373 C50.000069,54.0997 50.490839,53.1865 51.593819,52.3624 L51.593819,52.3624 Z" id="Shape"></path>
            </g>
        </g>
    </g>
</svg>
