
<svg width="230px" height="72px" viewBox="0 0 230 72" version="1.1" xmlns="http://www.w3.org/2000/svg" xmlns:xlink="http://www.w3.org/1999/xlink">
    <!-- Generator: Sketch 47.1 (45422) - http://www.bohemiancoding.com/sketch -->
    <desc>Created with Sketch.</desc>
    <defs></defs>
    <g id="icons" stroke="none" stroke-width="1" fill="none" fill-rule="evenodd">
        <path d="M34,56.7777771 L36.8481789,5.7769645 L36.8481789,5.7769645 C36.9665264,3.65777855 38.719468,2 40.8419559,2 L45.7093257,2 L45.7093257,2 C47.8143642,2 49.5591862,3.63150649 49.7003248,5.73180811 L50.2004656,13.1744698" id="Path-2" stroke="#0F3FD5" stroke-width="3" transform="translate(42.100233, 29.388889) scale(-1, 1) translate(-42.100233, -29.388889) "></path>
        <path d="M50,69.8134725 L52.7015884,19.7843131 L52.7015884,19.7843131 C52.8161899,17.6620749 54.5704388,16 56.6957691,16 L61.5560782,16 L61.5560782,16 C63.6611511,16 65.4059892,17.631558 65.5470832,19.7318971 L66.0473016,27.1781945" id="Path-2" stroke="#FB3F4F" stroke-width="3" transform="translate(58.023651, 42.906736) scale(-1, -1) translate(-58.023651, -42.906736) "></path>
        <path d="M2,56.7777771 L4.84817889,5.7769645 L4.84817889,5.7769645 C4.96652643,3.65777855 6.71946795,2 8.84195594,2 L13.7093257,2 L13.7093257,2 C15.8143642,2 17.5591862,3.63150649 17.7003248,5.73180811 L18.2004656,13.1744698" id="Path-2" stroke="#0F3FD5" stroke-width="3" transform="translate(10.100233, 29.388889) scale(-1, 1) translate(-10.100233, -29.388889) "></path>
        <path d="M18,69.8134725 L20.7015884,19.7843131 L20.7015884,19.7843131 C20.8161899,17.6620749 22.5704388,16 24.6957691,16 L29.5560782,16 L29.5560782,16 C31.6611511,16 33.4059892,17.631558 33.5470832,19.7318971 L34.0473016,27.1781945" id="Path-2" stroke="#FB3F4F" stroke-width="3" transform="translate(26.023651, 42.906736) scale(-1, -1) translate(-26.023651, -42.906736) "></path>
        <path d="M66,56.7777771 L68.8481789,5.7769645 L68.8481789,5.7769645 C68.9665264,3.65777855 70.719468,2 72.8419559,2 L77.7093257,2 L77.7093257,2 C79.8143642,2 81.5591862,3.63150649 81.7003248,5.73180811 L82.2004656,13.1744698" id="Path-2" stroke="#0F3FD5" stroke-width="3" transform="translate(74.100233, 29.388889) scale(-1, 1) translate(-74.100233, -29.388889) "></path>
        <path d="M82,69.8134725 L84.8711649,19.7708791 L84.8711649,19.7708791 C84.9926067,17.6542252 86.7444626,16 88.8645975,16 L94.5274853,16 L94.5274853,16 C96.6261231,16 98.3679268,17.6219147 98.5173355,19.7152274 L99.0499992,27.1781945" id="Path-2" stroke="#FB3F4F" stroke-width="3" transform="translate(90.525000, 42.906736) scale(-1, -1) translate(-90.525000, -42.906736) "></path>
        <path d="M99,56.7777771 L101.848179,5.7769645 L101.848179,5.7769645 C101.966526,3.65777855 103.719468,2 105.841956,2 L110.709326,2 L110.709326,2 C112.814364,2 114.559186,3.63150649 114.700325,5.73180811 L115.200466,13.1744698" id="Path-2" stroke="#0F3FD5" stroke-width="3" transform="translate(107.100233, 29.388889) scale(-1, 1) translate(-107.100233, -29.388889) "></path>
        <path d="M115,69.8134725 L117.701588,19.7843131 L117.701588,19.7843131 C117.81619,17.6620749 119.570439,16 121.695769,16 L126.556078,16 L126.556078,16 C128.661151,16 130.405989,17.631558 130.547083,19.7318971 L131.047302,27.1781945" id="Path-2" stroke="#FB3F4F" stroke-width="3" transform="translate(123.023651, 42.906736) scale(-1, -1) translate(-123.023651, -42.906736) "></path>
        <path d="M131,56.7777771 L133.848179,5.7769645 L133.848179,5.7769645 C133.966526,3.65777855 135.719468,2 137.841956,2 L142.709326,2 L142.709326,2 C144.814364,2 146.559186,3.63150649 146.700325,5.73180811 L147.200466,13.1744698" id="Path-2" stroke="#0F3FD5" stroke-width="3" transform="translate(139.100233, 29.388889) scale(-1, 1) translate(-139.100233, -29.388889) "></path>
        <path d="M147,69.8134725 L149.701588,19.7843131 L149.701588,19.7843131 C149.81619,17.6620749 151.570439,16 153.695769,16 L158.556078,16 L158.556078,16 C160.661151,16 162.405989,17.631558 162.547083,19.7318971 L163.047302,27.1781945" id="Path-2" stroke="#FB3F4F" stroke-width="3" transform="translate(155.023651, 42.906736) scale(-1, -1) translate(-155.023651, -42.906736) "></path>
        <path d="M164,56.7777771 L166.848179,5.7769645 L166.848179,5.7769645 C166.966526,3.65777855 168.719468,2 170.841956,2 L175.709326,2 L175.709326,2 C177.814364,2 179.559186,3.63150649 179.700325,5.73180811 L180.200466,13.1744698" id="Path-2" stroke="#0F3FD5" stroke-width="3" transform="translate(172.100233, 29.388889) scale(-1, 1) translate(-172.100233, -29.388889) "></path>
        <path d="M180,69.8134725 L182.701588,19.7843131 L182.701588,19.7843131 C182.81619,17.6620749 184.570439,16 186.695769,16 L191.556078,16 L191.556078,16 C193.661151,16 195.405989,17.631558 195.547083,19.7318971 L196.047302,27.1781945" id="Path-2" stroke="#FB3F4F" stroke-width="3" transform="translate(188.023651, 42.906736) scale(-1, -1) translate(-188.023651, -42.906736) "></path>
        <path d="M196,56.7777771 L198.848179,5.7769645 L198.848179,5.7769645 C198.966526,3.65777855 200.719468,2 202.841956,2 L207.709326,2 L207.709326,2 C209.814364,2 211.559186,3.63150649 211.700325,5.73180811 L212.200466,13.1744698" id="Path-2" stroke="#0F3FD5" stroke-width="3" transform="translate(204.100233, 29.388889) scale(-1, 1) translate(-204.100233, -29.388889) "></path>
        <path d="M212,69.8134725 L214.701588,19.7843131 L214.701588,19.7843131 C214.81619,17.6620749 216.570439,16 218.695769,16 L223.556078,16 L223.556078,16 C225.661151,16 227.405989,17.631558 227.547083,19.7318971 L228.047302,27.1781945" id="Path-2" stroke="#FB3F4F" stroke-width="3" transform="translate(220.023651, 42.906736) scale(-1, -1) translate(-220.023651, -42.906736) "></path>
    </g>
</svg>
