
<svg width="1275px" height="1291px" viewBox="0 0 1275 1291" version="1.1" xmlns="http://www.w3.org/2000/svg" xmlns:xlink="http://www.w3.org/1999/xlink">
    <!-- Generator: Sketch 47.1 (45422) - http://www.bohemiancoding.com/sketch -->
    <desc>Created with Sketch.</desc>
    <defs></defs>
    <g id="Page-1" stroke="none" stroke-width="1" fill="none" fill-rule="evenodd">
        <g id="Artboard-2" transform="translate(-326.000000, -268.000000)" fill="#000000">
            <g id="Group" transform="translate(326.000000, 268.000000)">
                <rect id="Rectangle" transform="translate(306.500000, 126.500000) rotate(-20.000000) translate(-306.500000, -126.500000) " x="208" y="28" width="197" height="197"></rect>
                <rect id="Rectangle" transform="translate(497.500000, 317.500000) rotate(20.000000) translate(-497.500000, -317.500000) " x="399" y="219" width="197" height="197"></rect>
                <rect id="Rectangle" transform="translate(126.500000, 311.500000) rotate(20.000000) translate(-126.500000, -311.500000) " x="28" y="213" width="197" height="197"></rect>
                <rect id="Rectangle" transform="translate(314.500000, 510.500000) rotate(-20.000000) translate(-314.500000, -510.500000) " x="216" y="412" width="197" height="197"></rect>
                <rect id="Rectangle" transform="translate(958.500000, 779.500000) rotate(-20.000000) translate(-958.500000, -779.500000) " x="860" y="681" width="197" height="197"></rect>
                <rect id="Rectangle" transform="translate(1148.500000, 972.500000) rotate(20.000000) translate(-1148.500000, -972.500000) " x="1050" y="874" width="197" height="197"></rect>
                <rect id="Rectangle" transform="translate(778.500000, 965.500000) rotate(20.000000) translate(-778.500000, -965.500000) " x="680" y="867" width="197" height="197"></rect>
                <rect id="Rectangle" transform="translate(965.500000, 1164.500000) rotate(-20.000000) translate(-965.500000, -1164.500000) " x="867" y="1066" width="197" height="197"></rect>
                <rect id="Rectangle" transform="translate(306.500000, 126.500000) rotate(-20.000000) translate(-306.500000, -126.500000) " x="208" y="28" width="197" height="197"></rect>
                <rect id="Rectangle" transform="translate(497.500000, 317.500000) rotate(20.000000) translate(-497.500000, -317.500000) " x="399" y="219" width="197" height="197"></rect>
                <rect id="Rectangle" transform="translate(126.500000, 311.500000) rotate(20.000000) translate(-126.500000, -311.500000) " x="28" y="213" width="197" height="197"></rect>
                <rect id="Rectangle" transform="translate(314.500000, 510.500000) rotate(-20.000000) translate(-314.500000, -510.500000) " x="216" y="412" width="197" height="197"></rect>
                <rect id="Rectangle" transform="translate(942.500000, 128.500000) scale(-1, 1) rotate(-20.000000) translate(-942.500000, -128.500000) " x="844" y="30" width="197" height="197"></rect>
                <rect id="Rectangle" transform="translate(1131.500000, 320.500000) scale(-1, 1) rotate(20.000000) translate(-1131.500000, -320.500000) " x="1033" y="222" width="197" height="197"></rect>
                <rect id="Rectangle" transform="translate(761.500000, 314.500000) scale(-1, 1) rotate(20.000000) translate(-761.500000, -314.500000) " x="663" y="216" width="197" height="197"></rect>
                <rect id="Rectangle" transform="translate(948.500000, 513.500000) scale(-1, 1) rotate(-20.000000) translate(-948.500000, -513.500000) " x="850" y="415" width="197" height="197"></rect>
                <rect id="Rectangle" transform="translate(942.500000, 128.500000) scale(-1, 1) rotate(-20.000000) translate(-942.500000, -128.500000) " x="844" y="30" width="197" height="197"></rect>
                <rect id="Rectangle" transform="translate(1131.500000, 320.500000) scale(-1, 1) rotate(20.000000) translate(-1131.500000, -320.500000) " x="1033" y="222" width="197" height="197"></rect>
                <rect id="Rectangle" transform="translate(761.500000, 314.500000) scale(-1, 1) rotate(20.000000) translate(-761.500000, -314.500000) " x="663" y="216" width="197" height="197"></rect>
                <rect id="Rectangle" transform="translate(326.500000, 764.500000) scale(-1, 1) rotate(-20.000000) translate(-326.500000, -764.500000) " x="228" y="666" width="197" height="197"></rect>
                <rect id="Rectangle" transform="translate(517.500000, 956.500000) scale(-1, 1) rotate(20.000000) translate(-517.500000, -956.500000) " x="419" y="858" width="197" height="197"></rect>
                <rect id="Rectangle" transform="translate(146.500000, 950.500000) scale(-1, 1) rotate(20.000000) translate(-146.500000, -950.500000) " x="48" y="852" width="197" height="197"></rect>
                <rect id="Rectangle" transform="translate(334.500000, 1148.500000) scale(-1, 1) rotate(-20.000000) translate(-334.500000, -1148.500000) " x="236" y="1050" width="197" height="197"></rect>
                <rect id="Rectangle" transform="translate(326.500000, 764.500000) scale(-1, 1) rotate(-20.000000) translate(-326.500000, -764.500000) " x="228" y="666" width="197" height="197"></rect>
                <rect id="Rectangle" transform="translate(517.500000, 956.500000) scale(-1, 1) rotate(20.000000) translate(-517.500000, -956.500000) " x="419" y="858" width="197" height="197"></rect>
                <rect id="Rectangle" transform="translate(146.500000, 950.500000) scale(-1, 1) rotate(20.000000) translate(-146.500000, -950.500000) " x="48" y="852" width="197" height="197"></rect>
                <rect id="Rectangle" transform="translate(314.500000, 510.500000) rotate(-20.000000) translate(-314.500000, -510.500000) " x="216" y="412" width="197" height="197"></rect>
            </g>
        </g>
    </g>
</svg>
