
<svg width="1226px" height="1207px" viewBox="0 0 1226 1207" version="1.1" xmlns="http://www.w3.org/2000/svg" xmlns:xlink="http://www.w3.org/1999/xlink">
    <!-- Generator: Sketch 47.1 (45422) - http://www.bohemiancoding.com/sketch -->
    <desc>Created with Sketch.</desc>
    <defs></defs>
    <g id="Page-1" stroke="none" stroke-width="1" fill="none" fill-rule="evenodd">
        <g id="Artboard-2" transform="translate(-323.000000, -341.000000)">
            <circle id="Oval-12" stroke="#979797" fill="#000000" cx="929" cy="941" r="26"></circle>
            <circle id="Oval-12" stroke="#979797" fill="#000000" opacity="0.272192029" cx="1526.5" cy="944.5" r="21.5"></circle>
            <path d="M944.5,944.5 L1527.77738,944.5" id="Line" stroke="#000000" stroke-width="4" opacity="0.272192029" stroke-linecap="square"></path>
            <g id="Group-2" opacity="0.272192029" transform="translate(907.000000, 342.000000)">
                <g id="Group" transform="translate(292.289672, 447.619546) rotate(-30.000000) translate(-292.289672, -447.619546) translate(-9.710328, 426.119546)">
                    <circle id="Oval-12" stroke="#979797" fill="#000000" cx="582.5" cy="21.5" r="21.5"></circle>
                    <path d="M0.5,21.5 L583.777378,21.5" id="Line" stroke="#000000" stroke-width="4" stroke-linecap="square"></path>
                </g>
                <g id="Group" transform="translate(175.619546, 332.289672) rotate(-60.000000) translate(-175.619546, -332.289672) translate(-126.380454, 310.789672)">
                    <circle id="Oval-12" stroke="#979797" fill="#000000" cx="582.5" cy="21.5" r="21.5"></circle>
                    <path d="M0.5,21.5 L583.777378,21.5" id="Line" stroke="#000000" stroke-width="4" stroke-linecap="square"></path>
                </g>
                <g id="Group" transform="translate(21.619546, 302.289672) rotate(-90.000000) translate(-21.619546, -302.289672) translate(-280.380454, 280.789672)">
                    <circle id="Oval-12" stroke="#979797" fill="#000000" cx="582.5" cy="21.5" r="21.5"></circle>
                    <path d="M0.5,21.5 L583.777378,21.5" id="Line" stroke="#000000" stroke-width="4" stroke-linecap="square"></path>
                </g>
            </g>
            <g id="Group-2" opacity="0.272192029" transform="translate(634.000000, 681.500000) rotate(-90.000000) translate(-634.000000, -681.500000) translate(353.500000, 371.500000)">
                <g id="Group" transform="translate(287.959545, 450.119546) rotate(-30.000000) translate(-287.959545, -450.119546) translate(-14.040455, 428.619546)">
                    <circle id="Oval-12" stroke="#979797" fill="#000000" cx="582.5" cy="21.5" r="21.5"></circle>
                    <path d="M0.5,21.5 L583.777378,21.5" id="Line" stroke="#000000" stroke-width="4" stroke-linecap="square"></path>
                </g>
                <g id="Group" transform="translate(174.423394, 342.217875) rotate(-60.000000) translate(-174.423394, -342.217875) translate(-127.576606, 320.717875)">
                    <circle id="Oval-12" stroke="#979797" fill="#000000" cx="582.5" cy="21.5" r="21.5"></circle>
                    <path d="M0.5,21.5 L583.777378,21.5" id="Line" stroke="#000000" stroke-width="4" stroke-linecap="square"></path>
                </g>
                <g id="Group" transform="translate(21.619546, 302.289672) rotate(-90.000000) translate(-21.619546, -302.289672) translate(-280.380454, 280.789672)">
                    <circle id="Oval-12" stroke="#979797" fill="#000000" cx="582.5" cy="21.5" r="21.5"></circle>
                    <path d="M0.5,21.5 L583.777378,21.5" id="Line" stroke="#000000" stroke-width="4" stroke-linecap="square"></path>
                </g>
            </g>
            <g id="Group-2" opacity="0.272192029" transform="translate(670.500000, 1237.000000) rotate(-180.000000) translate(-670.500000, -1237.000000) translate(390.000000, 927.000000)">
                <g id="Group" transform="translate(287.959545, 450.119546) rotate(-30.000000) translate(-287.959545, -450.119546) translate(-14.040455, 428.619546)">
                    <circle id="Oval-12" stroke="#979797" fill="#000000" cx="582.5" cy="21.5" r="21.5"></circle>
                    <path d="M0.5,21.5 L583.777378,21.5" id="Line" stroke="#000000" stroke-width="4" stroke-linecap="square"></path>
                </g>
                <g id="Group" transform="translate(174.423394, 342.217875) rotate(-60.000000) translate(-174.423394, -342.217875) translate(-127.576606, 320.717875)">
                    <circle id="Oval-12" stroke="#979797" fill="#000000" cx="582.5" cy="21.5" r="21.5"></circle>
                    <path d="M0.5,21.5 L583.777378,21.5" id="Line" stroke="#000000" stroke-width="4" stroke-linecap="square"></path>
                </g>
                <g id="Group" transform="translate(21.619546, 302.289672) rotate(-90.000000) translate(-21.619546, -302.289672) translate(-280.380454, 280.789672)">
                    <circle id="Oval-12" stroke="#979797" fill="#000000" cx="582.5" cy="21.5" r="21.5"></circle>
                    <path d="M0.5,21.5 L583.777378,21.5" id="Line" stroke="#000000" stroke-width="4" stroke-linecap="square"></path>
                </g>
            </g>
            <g id="Group-2" opacity="0.272192029" transform="translate(1187.500000, 1199.500000) scale(-1, 1) rotate(-180.000000) translate(-1187.500000, -1199.500000) translate(909.000000, 924.000000)">
                <g id="Group" transform="translate(283.959545, 381.119546) rotate(-30.000000) translate(-283.959545, -381.119546) translate(-18.040455, 359.619546)">
                    <circle id="Oval-12" stroke="#979797" fill="#000000" cx="582.5" cy="21.5" r="21.5"></circle>
                    <path d="M0.5,21.5 L583.777378,21.5" id="Line" stroke="#000000" stroke-width="4" stroke-linecap="square"></path>
                </g>
                <g id="Group" transform="translate(170.423394, 273.217875) rotate(-60.000000) translate(-170.423394, -273.217875) translate(-131.576606, 251.717875)">
                    <circle id="Oval-12" stroke="#979797" fill="#000000" cx="582.5" cy="21.5" r="21.5"></circle>
                    <path d="M0.5,21.5 L583.777378,21.5" id="Line" stroke="#000000" stroke-width="4" stroke-linecap="square"></path>
                </g>
            </g>
        </g>
    </g>
</svg>
