
<svg width="230px" height="71px" viewBox="0 0 230 71" version="1.1" xmlns="http://www.w3.org/2000/svg" xmlns:xlink="http://www.w3.org/1999/xlink">
    <!-- Generator: Sketch 47.1 (45422) - http://www.bohemiancoding.com/sketch -->
    <desc>Created with Sketch.</desc>
    <defs></defs>
    <g id="icons" stroke="none" stroke-width="1" fill="none" fill-rule="evenodd">
        <path d="M34,55.7777771 L36.8444918,5.77283041 L36.8444918,5.77283041 C36.9649422,3.65536416 38.7171465,2 40.8380359,2 L45.7139858,2 L45.7139858,2 C47.8171077,2 49.5610281,3.6286318 49.7046481,5.72684411 L50.2004656,12.9704734" id="Path-2" stroke="#0F3FD5" stroke-width="3" transform="translate(42.100233, 28.888889) scale(-1, 1) translate(-42.100233, -28.888889) "></path>
        <path d="M50,68.8134725 L52.6979431,19.7802414 L52.6979431,19.7802414 C52.8146215,17.6596936 54.5681465,16 56.6919018,16 L61.5608219,16 L61.5608219,16 C63.6639437,16 65.4078642,17.6286318 65.5514842,19.7268441 L66.0473016,26.9704734" id="Path-2" stroke="#6884FB" stroke-width="3" transform="translate(58.023651, 42.406736) scale(-1, -1) translate(-58.023651, -42.406736) "></path>
        <path d="M2,55.7777771 L4.84449185,5.77283041 L4.84449185,5.77283041 C4.96494224,3.65536416 6.71714655,2 8.83803588,2 L13.7139858,2 L13.7139858,2 C15.8171077,2 17.5610281,3.6286318 17.7046481,5.72684411 L18.2004656,12.9704734" id="Path-2" stroke="#0F3FD5" stroke-width="3" transform="translate(10.100233, 28.888889) scale(-1, 1) translate(-10.100233, -28.888889) "></path>
        <path d="M18,68.8134725 L20.6979431,19.7802414 L20.6979431,19.7802414 C20.8146215,17.6596936 22.5681465,16 24.6919018,16 L29.5608219,16 L29.5608219,16 C31.6639437,16 33.4078642,17.6286318 33.5514842,19.7268441 L34.0473016,26.9704734" id="Path-2" stroke="#6884FB" stroke-width="3" transform="translate(26.023651, 42.406736) scale(-1, -1) translate(-26.023651, -42.406736) "></path>
        <path d="M66,55.7777771 L68.8444918,5.77283041 L68.8444918,5.77283041 C68.9649422,3.65536416 70.7171465,2 72.8380359,2 L77.7139858,2 L77.7139858,2 C79.8171077,2 81.5610281,3.6286318 81.7046481,5.72684411 L82.2004656,12.9704734" id="Path-2" stroke="#0F3FD5" stroke-width="3" transform="translate(74.100233, 28.888889) scale(-1, 1) translate(-74.100233, -28.888889) "></path>
        <path d="M82,68.8134725 L84.8673211,19.7665554 L84.8673211,19.7665554 C84.9909571,17.651703 86.74204,16 88.8605033,16 L94.5325026,16 L94.5325026,16 C96.6290705,16 98.3698935,17.618818 98.5219663,19.7098634 L99.0499992,26.9704734" id="Path-2" stroke="#6884FB" stroke-width="3" transform="translate(90.525000, 42.406736) scale(-1, -1) translate(-90.525000, -42.406736) "></path>
        <path d="M99,55.7777771 L101.844492,5.77283041 L101.844492,5.77283041 C101.964942,3.65536416 103.717147,2 105.838036,2 L110.713986,2 L110.713986,2 C112.817108,2 114.561028,3.6286318 114.704648,5.72684411 L115.200466,12.9704734" id="Path-2" stroke="#0F3FD5" stroke-width="3" transform="translate(107.100233, 28.888889) scale(-1, 1) translate(-107.100233, -28.888889) "></path>
        <path d="M115,68.8134725 L117.697943,19.7802414 L117.697943,19.7802414 C117.814621,17.6596936 119.568146,16 121.691902,16 L126.560822,16 L126.560822,16 C128.663944,16 130.407864,17.6286318 130.551484,19.7268441 L131.047302,26.9704734" id="Path-2" stroke="#6884FB" stroke-width="3" transform="translate(123.023651, 42.406736) scale(-1, -1) translate(-123.023651, -42.406736) "></path>
        <path d="M131,55.7777771 L133.844492,5.77283041 L133.844492,5.77283041 C133.964942,3.65536416 135.717147,2 137.838036,2 L142.713986,2 L142.713986,2 C144.817108,2 146.561028,3.6286318 146.704648,5.72684411 L147.200466,12.9704734" id="Path-2" stroke="#0F3FD5" stroke-width="3" transform="translate(139.100233, 28.888889) scale(-1, 1) translate(-139.100233, -28.888889) "></path>
        <path d="M147,68.8134725 L149.697943,19.7802414 L149.697943,19.7802414 C149.814621,17.6596936 151.568146,16 153.691902,16 L158.560822,16 L158.560822,16 C160.663944,16 162.407864,17.6286318 162.551484,19.7268441 L163.047302,26.9704734" id="Path-2" stroke="#6884FB" stroke-width="3" transform="translate(155.023651, 42.406736) scale(-1, -1) translate(-155.023651, -42.406736) "></path>
        <path d="M164,55.7777771 L166.844492,5.77283041 L166.844492,5.77283041 C166.964942,3.65536416 168.717147,2 170.838036,2 L175.713986,2 L175.713986,2 C177.817108,2 179.561028,3.6286318 179.704648,5.72684411 L180.200466,12.9704734" id="Path-2" stroke="#0F3FD5" stroke-width="3" transform="translate(172.100233, 28.888889) scale(-1, 1) translate(-172.100233, -28.888889) "></path>
        <path d="M180,68.8134725 L182.697943,19.7802414 L182.697943,19.7802414 C182.814621,17.6596936 184.568146,16 186.691902,16 L191.560822,16 L191.560822,16 C193.663944,16 195.407864,17.6286318 195.551484,19.7268441 L196.047302,26.9704734" id="Path-2" stroke="#6884FB" stroke-width="3" transform="translate(188.023651, 42.406736) scale(-1, -1) translate(-188.023651, -42.406736) "></path>
        <path d="M196,55.7777771 L198.844492,5.77283041 L198.844492,5.77283041 C198.964942,3.65536416 200.717147,2 202.838036,2 L207.713986,2 L207.713986,2 C209.817108,2 211.561028,3.6286318 211.704648,5.72684411 L212.200466,12.9704734" id="Path-2" stroke="#0F3FD5" stroke-width="3" transform="translate(204.100233, 28.888889) scale(-1, 1) translate(-204.100233, -28.888889) "></path>
        <path d="M212,68.8134725 L214.697943,19.7802414 L214.697943,19.7802414 C214.814621,17.6596936 216.568146,16 218.691902,16 L223.560822,16 L223.560822,16 C225.663944,16 227.407864,17.6286318 227.551484,19.7268441 L228.047302,26.9704734" id="Path-2" stroke="#6884FB" stroke-width="3" transform="translate(220.023651, 42.406736) scale(-1, -1) translate(-220.023651, -42.406736) "></path>
    </g>
</svg>
