
<svg width="709px" height="711px" viewBox="0 0 709 711" version="1.1" xmlns="http://www.w3.org/2000/svg" xmlns:xlink="http://www.w3.org/1999/xlink">
    <!-- Generator: Sketch 47.1 (45422) - http://www.bohemiancoding.com/sketch -->
    <desc>Created with Sketch.</desc>
    <defs></defs>
    <g id="Page-1" stroke="none" stroke-width="1" fill="none" fill-rule="evenodd">
        <g id="logo-down" transform="translate(-564.000000, -582.000000)">
            <g id="Group-2" transform="translate(564.000000, 582.000000)">
                <circle id="Oval" fill="#FFFFFF" cx="355.5" cy="354.5" r="353.5"></circle>
                <rect id="Rectangle" fill="#1645D2" transform="translate(674.061954, 317.594383) rotate(-6.000000) translate(-674.061954, -317.594383) " x="640.561954" y="310.462635" width="67" height="14.2634961"></rect>
                <rect id="Rectangle" fill="#1645D2" transform="translate(34.061954, 317.594383) scale(-1, 1) rotate(-6.000000) translate(-34.061954, -317.594383) " x="0.561954159" y="310.462635" width="67" height="14.2634961"></rect>
                <rect id="Rectangle" fill="#1645D2" transform="translate(674.061954, 393.594383) scale(-1, 1) rotate(-6.000000) translate(-674.061954, -393.594383) " x="640.561954" y="386.462635" width="67" height="14.2634961"></rect>
                <rect id="Rectangle" fill="#1645D2" transform="translate(35.061954, 393.594383) rotate(-6.000000) translate(-35.061954, -393.594383) " x="1.56195416" y="386.462635" width="67" height="14.2634961"></rect>
                <rect id="Rectangle" fill="#1645D2" transform="translate(657.918904, 242.159326) rotate(-20.000000) translate(-657.918904, -242.159326) " x="624.418904" y="235.027578" width="67" height="14.2634961"></rect>
                <rect id="Rectangle" fill="#1645D2" transform="translate(50.918904, 242.159326) scale(-1, 1) rotate(-20.000000) translate(-50.918904, -242.159326) " x="17.4189043" y="235.027578" width="67" height="14.2634961"></rect>
                <rect id="Rectangle" fill="#1645D2" transform="translate(656.918904, 469.159326) scale(1, -1) rotate(-20.000000) translate(-656.918904, -469.159326) " x="623.418904" y="462.027578" width="67" height="14.2634961"></rect>
                <rect id="Rectangle" fill="#1645D2" transform="translate(51.918904, 469.159326) scale(-1, -1) rotate(-20.000000) translate(-51.918904, -469.159326) " x="18.4189043" y="462.027578" width="67" height="14.2634961"></rect>
                <rect id="Rectangle" fill="#1645D2" transform="translate(620.760782, 173.645449) rotate(-34.000000) translate(-620.760782, -173.645449) " x="587.260782" y="166.513701" width="67" height="14.2634961"></rect>
                <rect id="Rectangle" fill="#1645D2" transform="translate(87.760782, 173.645449) scale(-1, 1) rotate(-34.000000) translate(-87.760782, -173.645449) " x="54.2607816" y="166.513701" width="67" height="14.2634961"></rect>
                <rect id="Rectangle" fill="#1645D2" transform="translate(620.760782, 538.645449) scale(1, -1) rotate(-34.000000) translate(-620.760782, -538.645449) " x="587.260782" y="531.513701" width="67" height="14.2634961"></rect>
                <rect id="Rectangle" fill="#1645D2" transform="translate(88.760782, 538.645449) scale(-1, -1) rotate(-34.000000) translate(-88.760782, -538.645449) " x="55.2607816" y="531.513701" width="67" height="14.2634961"></rect>
                <rect id="Rectangle" fill="#1645D2" transform="translate(569.715797, 115.667423) rotate(-48.000000) translate(-569.715797, -115.667423) " x="536.215797" y="108.535675" width="67" height="14.2634961"></rect>
                <rect id="Rectangle" fill="#1645D2" transform="translate(569.715797, 115.667423) rotate(-48.000000) translate(-569.715797, -115.667423) " x="536.215797" y="108.535675" width="67" height="14.2634961"></rect>
                <rect id="Rectangle" fill="#1645D2" transform="translate(139.715797, 114.667423) scale(-1, 1) rotate(-48.000000) translate(-139.715797, -114.667423) " x="106.215797" y="107.535675" width="67" height="14.2634961"></rect>
                <rect id="Rectangle" fill="#1645D2" transform="translate(569.715797, 596.667423) scale(1, -1) rotate(-48.000000) translate(-569.715797, -596.667423) " x="536.215797" y="589.535675" width="67" height="14.2634961"></rect>
                <rect id="Rectangle" fill="#1645D2" transform="translate(138.715797, 596.667423) scale(-1, -1) rotate(-48.000000) translate(-138.715797, -596.667423) " x="105.215797" y="589.535675" width="67" height="14.2634961"></rect>
                <rect id="Rectangle" fill="#1645D2" transform="translate(505.478690, 70.757300) rotate(-61.000000) translate(-505.478690, -70.757300) " x="471.97869" y="63.6255522" width="67" height="14.2634961"></rect>
                <rect id="Rectangle" fill="#1645D2" transform="translate(204.478690, 70.757300) scale(-1, 1) rotate(-61.000000) translate(-204.478690, -70.757300) " x="170.97869" y="63.6255522" width="67" height="14.2634961"></rect>
                <rect id="Rectangle" fill="#1645D2" transform="translate(505.478690, 640.757300) scale(1, -1) rotate(-61.000000) translate(-505.478690, -640.757300) " x="471.97869" y="633.625552" width="67" height="14.2634961"></rect>
                <rect id="Rectangle" fill="#1645D2" transform="translate(205.478690, 640.757300) scale(-1, -1) rotate(-61.000000) translate(-205.478690, -640.757300) " x="171.97869" y="633.625552" width="67" height="14.2634961"></rect>
                <rect id="Rectangle" fill="#1645D2" transform="translate(434.484822, 43.245691) rotate(-77.000000) translate(-434.484822, -43.245691) " x="400.984822" y="36.1139434" width="67" height="14.2634961"></rect>
                <rect id="Rectangle" fill="#1645D2" transform="translate(279.484822, 43.245691) scale(-1, 1) rotate(-77.000000) translate(-279.484822, -43.245691) " x="245.984822" y="36.1139434" width="67" height="14.2634961"></rect>
                <circle id="Oval-2" fill="#1645D2" cx="354.5" cy="352.5" r="294.5"></circle>
                <rect id="Rectangle" fill="#1645D2" transform="translate(434.484822, 669.245691) scale(1, -1) rotate(-77.000000) translate(-434.484822, -669.245691) " x="400.984822" y="662.113943" width="67" height="14.2634961"></rect>
                <rect id="Rectangle" fill="#1645D2" transform="translate(278.484822, 669.245691) scale(-1, -1) rotate(-77.000000) translate(-278.484822, -669.245691) " x="244.984822" y="662.113943" width="67" height="14.2634961"></rect>
                <rect id="Rectangle" fill="#1645D2" transform="translate(354.715317, 33.619364) rotate(-91.000000) translate(-354.715317, -33.619364) " x="321.215317" y="26.4876159" width="67" height="14.2634961"></rect>
                <rect id="Rectangle" fill="#1645D2" transform="translate(354.715317, 676.619364) rotate(-91.000000) translate(-354.715317, -676.619364) " x="321.215317" y="669.487616" width="67" height="14.2634961"></rect>
            </g>
        </g>
    </g>
</svg>
