
<svg width="1648px" height="814px" viewBox="0 0 1648 814" version="1.1" xmlns="http://www.w3.org/2000/svg" xmlns:xlink="http://www.w3.org/1999/xlink">
    <!-- Generator: Sketch 47.1 (45422) - http://www.bohemiancoding.com/sketch -->
    <desc>Created with Sketch.</desc>
    <defs></defs>
    <g id="Page-1" stroke="none" stroke-width="1" fill="none" fill-rule="evenodd">
        <g id="Artboard-2" transform="translate(0.000000, -881.000000)">
            <g id="Group-4" transform="translate(-1.000000, 881.000000)">
                <g id="Group-3">
                    <g id="Group">
                        <path d="M1644.71351,620.385581 C1382.54002,352.633219 1118.50891,223.04032 852.620191,231.606883 C586.73147,240.173447 305.496898,304.9035 8.91647582,425.797044 L10.6875327,811.572481 L1646.48457,811.572481 L1644.71351,620.385581 Z" id="Path-13" fill="#FDBD6C"></path>
                        <path d="M1646.51132,0.297898312 C1427.06314,28.6007237 1189.37676,127.421036 933.452158,296.758836 C677.527559,466.096636 366.493146,567.745919 0.348919047,601.706684 L0.348919047,813.079277 L1646.51132,813.079277 L1646.51132,0.297898312 Z" id="Path-8" fill="#133BB4"></path>
                        <path d="M0.0636987136,207.428582 C396.016382,240.938199 673.979136,291.936138 833.95196,360.422402 C993.924785,428.908665 1265.43471,503.285253 1648.48175,583.552165 L1648.48175,808.986854 L0.998941799,808.986854" id="Path-12" fill="#FB3F4F" opacity="0.891644022"></path>
                    </g>
                </g>
            </g>
        </g>
    </g>
</svg>
