
<svg width="327px" height="368px" viewBox="0 0 327 368" version="1.1" xmlns="http://www.w3.org/2000/svg" xmlns:xlink="http://www.w3.org/1999/xlink">
    <!-- Generator: Sketch 47.1 (45422) - http://www.bohemiancoding.com/sketch -->
    <desc>Created with Sketch.</desc>
    <defs></defs>
    <g id="Page-1" stroke="none" stroke-width="1" fill="none" fill-rule="evenodd">
        <g id="Artboard-2" transform="translate(-1205.000000, -1327.000000)" fill-rule="nonzero" fill="#FFFFFF">
            <g id="noun_430655_cc" transform="translate(1205.000000, 1327.000000)">
                <g id="Group">
                    <polygon id="Shape" points="204.78375 60.1066667 122.21625 60.1066667 102.1875 129.617778 224.8125 129.617778"></polygon>
                    <path d="M184.34625,0 L142.65375,0 C141.01875,0 139.38375,1.22666667 138.975,2.86222222 L124.26,53.9733333 L203.14875,53.9733333 L188.025,2.86222222 C187.61625,1.22666667 185.98125,0 184.34625,0 Z" id="Shape"></path>
                    <polygon id="Shape" points="226.4475 135.751111 100.5525 135.751111 79.2975 210.168889 247.7025 210.168889"></polygon>
                    <polygon id="Shape" points="249.74625 216.302222 77.25375 216.302222 58.86 280.906667 268.14 280.906667"></polygon>
                    <path d="M281.62875,326.702222 L270.18375,287.04 L56.81625,287.04 L45.37125,326.702222 L8.175,326.702222 C3.67875,326.702222 0,330.382222 0,334.88 L0,367.591111 L327,367.591111 L327,334.88 C327,330.382222 323.32125,326.702222 318.825,326.702222 L281.62875,326.702222 Z" id="Shape"></path>
                </g>
            </g>
        </g>
    </g>
</svg>
