
<svg width="269px" height="492px" viewBox="0 0 269 492" version="1.1" xmlns="http://www.w3.org/2000/svg" xmlns:xlink="http://www.w3.org/1999/xlink">
    <!-- Generator: Sketch 47.1 (45422) - http://www.bohemiancoding.com/sketch -->
    <desc>Created with Sketch.</desc>
    <defs></defs>
    <g id="Page-1" stroke="none" stroke-width="1" fill="none" fill-rule="evenodd">
        <g id="Desktop-Main" transform="translate(-79.000000, -993.000000)" fill="#FDD113">
            <g id="Group-2" transform="translate(79.000000, 990.000000)">
                <path d="M8.32750535e-13,297.924328 L1.16760494,3.20404857 C66.410538,3.32729306 104.920653,3.32729306 116.697951,3.20404857 C123.830196,12.3662073 143.172696,45.7310596 149.572878,55.0605266 C155.973061,64.3899935 174.197657,75.2725763 184.333024,93.8957341 C194.468391,112.518892 187.766852,130.420316 204.142298,150.592292 C220.517744,170.764267 239.811309,181.828211 245.451291,193.920595 C251.091273,206.012979 258.284434,231.422233 260.969459,249.102024 C263.423156,265.258617 272.024011,312.653719 266.496735,329.146322 C260.969459,345.638925 222.849621,405.017067 221.050259,433.278685 C219.087623,464.104765 177.671639,495 168.81044,495 C163.63279,495 107.362643,495 0,495 L8.32750535e-13,297.924328 Z" id="Path-3"></path>
            </g>
        </g>
    </g>
</svg>
