
<svg width="209px" height="490px" viewBox="0 0 209 490" version="1.1" xmlns="http://www.w3.org/2000/svg" xmlns:xlink="http://www.w3.org/1999/xlink">
    <!-- Generator: Sketch 47.1 (45422) - http://www.bohemiancoding.com/sketch -->
    <desc>Created with Sketch.</desc>
    <defs></defs>
    <g id="Page-1" stroke="none" stroke-width="1" fill="none" fill-rule="evenodd">
        <g id="Desktop-Main" transform="translate(-79.000000, -994.000000)" fill="#FFFFFF">
            <g id="Group-2" transform="translate(79.000000, 990.000000)">
                <path d="M0,494 L0,4.15016911 C31.0907164,4.69231379 52.8525997,10.3344477 65.2856499,21.0765709 C83.9352253,37.1897556 41.3001961,56.2265831 80.1956363,78.8633488 C119.091076,101.500115 130.173717,94.3688881 140.86344,120.098591 C151.553162,145.828294 125.533241,164.499031 140.86344,178.846718 C156.193638,193.194406 171.657598,218.32985 177.839117,233.338305 C181.063398,241.166715 194.597923,283.095567 207.831407,299.858852 C213.764745,307.374803 191.557438,378.593834 160.48031,413.294962 C153.350499,421.256202 115.849697,417.716559 108.259181,424.507789 C81.7257619,448.247222 45.6393682,471.411292 0,494 Z" id="Path-3"></path>
            </g>
        </g>
    </g>
</svg>
