
<svg width="160px" height="493px" viewBox="0 0 160 493" version="1.1" xmlns="http://www.w3.org/2000/svg" xmlns:xlink="http://www.w3.org/1999/xlink">
    <!-- Generator: Sketch 47.1 (45422) - http://www.bohemiancoding.com/sketch -->
    <desc>Created with Sketch.</desc>
    <defs></defs>
    <g id="Page-1" stroke="none" stroke-width="1" fill="none" fill-rule="evenodd">
        <g id="Desktop-Main" transform="translate(-79.000000, -992.000000)" fill="#4891D9">
            <g id="Group-2" transform="translate(79.000000, 990.000000)">
                <path d="M0,2.59349673 C40.3232882,13.6932709 53.0132771,27.7762683 38.0699667,44.8424888 C15.6550011,70.4418195 62.3906679,84.9402884 64.1338103,98.6448834 C65.8769527,112.349478 85.9023405,102.436672 102.67554,127.255694 C111.607579,140.472282 94.59799,144.38363 99.8914816,175.461816 C101.384629,184.228113 131.862892,216.100238 138.377234,232.497217 C144.02521,246.7135 159.128181,281.442841 159.128181,301.116143 C159.128181,316.160079 159.564707,336.052573 131.917415,345.268675 C99.8914816,355.944377 99.4312205,365.20234 94.1543646,382.553645 C85.1960961,412.010135 53.8113079,449.262902 0,494.311946 L0,2.59349673 Z" id="Path-3"></path>
            </g>
        </g>
    </g>
</svg>
